<svg width="115" height="115" viewBox="0 0 115 115" fill="none" xmlns="http://www.w3.org/2000/svg">
<circle cx="57.9995" cy="16" r="16" fill="black"/>
<circle cx="98" cy="58" r="16" transform="rotate(90 98 58)" fill="black"/>
<circle cx="57.9995" cy="97.9999" r="16" fill="black"/>
<circle cx="16" cy="58" r="16" transform="rotate(90 16 58)" fill="black"/>
<path d="M84.4077 1.92578C97.4451 8.01331 107.986 18.5536 114.074 31.5908C113.337 31.8546 112.543 32 111.715 32L90.9995 32C87.1336 31.9999 83.9995 28.8659 83.9995 25V4.28418C83.9995 3.45657 84.144 2.66273 84.4077 1.92578Z" fill="black"/>
<path d="M1.99951 31.5918C8.08704 18.5544 18.6273 8.01353 31.6645 1.92576C31.9283 2.66283 32.0737 3.45641 32.0737 4.28416L32.0737 25C32.0736 28.8659 28.9397 32 25.0737 32L4.35791 32C3.5303 32 2.73646 31.8555 1.99951 31.5918Z" fill="black"/>
<path d="M31.5913 114C18.5539 107.912 8.01306 97.3722 1.92529 84.335C2.66235 84.0712 3.45593 83.9258 4.28369 83.9258L24.9995 83.9258C28.8654 83.9259 31.9995 87.0599 31.9995 90.9258L31.9995 111.642C31.9995 112.469 31.855 113.263 31.5913 114Z" fill="black"/>
<path d="M114 84.4082C107.912 97.4456 97.3717 107.986 84.3345 114.074C84.0707 113.337 83.9253 112.544 83.9253 111.716L83.9253 91C83.9254 87.1341 87.0594 84 90.9253 84L111.641 84C112.469 84 113.263 84.1445 114 84.4082Z" fill="black"/>
</svg>
