<svg width="55" height="55" viewBox="0 0 55 55" fill="none" xmlns="http://www.w3.org/2000/svg">
<path d="M27.6146 6.53583C31.8083 6.53583 35.1083 6.53583 37.7208 6.81083C40.4021 7.08583 42.5562 7.68166 44.4125 9.03374C45.5354 9.83583 46.5208 10.8212 47.3229 11.9442C48.675 13.8004 49.2708 15.9775 49.5687 18.6358C49.8437 21.2483 49.8438 24.5483 49.8438 28.765V28.9712C49.8438 33.1879 49.8437 36.4879 49.5687 39.1004C49.2708 41.7817 48.675 43.9358 47.3229 45.7921C46.5208 46.915 45.5354 47.9004 44.4125 48.7025C42.5562 50.0317 40.4021 50.6275 37.7208 50.9254C35.1083 51.2004 31.8083 51.2004 27.6146 51.2004H27.3854C23.1917 51.2004 19.8917 51.2004 17.2792 50.9254C14.5979 50.6504 12.4437 50.0546 10.5875 48.7025C9.46458 47.9004 8.47917 46.915 7.67708 45.7921C6.325 43.9358 5.72917 41.7587 5.43125 39.1004C5.15625 36.4879 5.15625 33.1879 5.15625 28.9712V28.765C5.15625 24.5483 5.15625 21.2483 5.43125 18.6358C5.72917 15.9546 6.325 13.8004 7.67708 11.9442C8.47917 10.8212 9.46458 9.83583 10.5875 9.03374C12.4437 7.70458 14.5979 7.10874 17.2792 6.81083C19.8917 6.53583 23.1917 6.53583 27.3854 6.53583H27.6146ZM12.6042 11.8296C11.7792 12.4254 11.0458 13.1587 10.45 13.9837C9.60208 15.1525 9.12083 16.6421 8.86875 19.0254C8.59375 21.4317 8.59375 24.5483 8.59375 28.8796C8.59375 33.2108 8.59375 36.3275 8.86875 38.7337C9.12083 41.1171 9.60208 42.6067 10.45 43.7754C11.0458 44.6004 11.7792 45.3337 12.6042 45.9296C13.7729 46.7775 15.2625 47.2817 17.6458 47.5337C20.0521 47.8087 23.1688 47.8087 27.5 47.8087C31.8313 47.8087 34.9479 47.7858 37.3542 47.5337C39.7375 47.2587 41.2271 46.7775 42.3958 45.9296C43.2208 45.3337 43.9542 44.6004 44.55 43.7754C45.3979 42.6067 45.8792 41.1171 46.1542 38.7337C46.4063 36.3275 46.4063 33.2108 46.4063 28.8796C46.4063 24.5483 46.4063 21.4317 46.1542 19.0254C45.8792 16.6421 45.3979 15.1525 44.55 13.9837C43.9542 13.1587 43.2208 12.4254 42.3958 11.8296C41.2271 10.9817 39.7375 10.4775 37.3542 10.2254C34.9479 9.95041 31.8313 9.95041 27.5 9.95041C23.1688 9.95041 20.0521 9.97333 17.6458 10.2254C15.2625 10.5004 13.7729 10.9817 12.6042 11.8296ZM14.7354 16.2983C15.3542 15.5879 16.4542 15.4962 17.1646 16.115L19.9833 18.5442L20.0521 18.6129C20.5792 19.0712 21.1063 19.5067 21.4729 19.9421C21.8854 20.4004 22.3438 21.0879 22.3438 22.0046C22.3438 22.9212 21.8854 23.6087 21.4729 24.0671C21.1063 24.4796 20.5792 24.9379 20.0521 25.3962L19.9833 25.465L17.1646 27.8942C16.4542 28.5129 15.3542 28.4442 14.7354 27.7108C14.4407 27.363 14.2947 26.9132 14.329 26.4587C14.3633 26.0041 14.5751 25.5813 14.9188 25.2817L17.7375 22.8525C18.1958 22.4629 18.4938 22.1879 18.7 21.9817C18.4938 21.7754 18.1958 21.5233 17.7375 21.1108L14.9188 18.6817C14.5746 18.3824 14.3624 17.9595 14.3281 17.5047C14.2937 17.05 14.4401 16.6 14.7354 16.2525V16.2983ZM23.4896 26.5879C23.4896 25.6483 24.2688 24.8692 25.2083 24.8692H32.0833C33.0229 24.8692 33.8021 25.6483 33.8021 26.5879C33.8021 27.5275 33.0229 28.3067 32.0833 28.3067H25.2083C24.2688 28.3067 23.4896 27.5275 23.4896 26.5879Z" fill="black"/>
</svg>
