<svg width="54" height="54" viewBox="0 0 54 54" fill="none" xmlns="http://www.w3.org/2000/svg">
<path d="M31.1243 28.4896C30.2532 28.5015 31.2893 28.9381 32.4267 29.1136C32.7227 28.8825 33.0075 28.6374 33.2801 28.3791C32.5718 28.5521 31.8512 28.5559 31.1243 28.4896ZM35.8012 27.324C36.3197 26.6081 36.6986 25.8238 36.8315 25.013C36.715 25.5905 36.4016 26.09 36.1058 26.6165C34.4774 27.6421 35.9527 26.0078 36.105 25.3863C34.3542 27.5906 35.8645 26.7081 35.8012 27.324ZM37.528 22.8319C37.633 21.2625 37.2187 21.7586 37.0795 22.3573C37.2415 22.4421 37.3706 23.4634 37.528 22.8319ZM27.8202 1.38501C28.2851 1.46855 28.8247 1.53267 28.7492 1.6432C29.258 1.53225 29.3735 1.42973 27.8202 1.38501ZM28.7492 1.6432L28.4205 1.71155L28.7264 1.68455L28.7492 1.6432ZM43.2499 23.4267C43.3018 24.8358 42.8373 25.5196 42.4192 26.7296L41.6657 27.1059C41.0498 28.3032 41.7256 27.8661 41.2848 28.8183C40.3225 29.6734 38.365 31.4951 37.7385 31.6609C37.2812 31.6512 38.0481 31.1217 38.1485 30.9137C36.861 31.7988 37.1154 32.2414 35.1456 32.7793L35.0883 32.6506C30.23 34.9359 23.4825 30.4071 23.5715 24.2274C23.5196 24.6202 23.4243 24.5215 23.3163 24.6805C23.0657 21.5009 24.7848 18.3073 27.6839 17.0041C30.5198 15.5997 33.8442 16.176 35.8755 18.0689C34.76 16.6071 32.5389 15.058 29.9068 15.2031C27.3287 15.244 24.9169 16.8822 24.1123 18.6608C22.791 19.4927 22.6379 21.867 22.0625 22.3007C21.2883 27.9923 23.5192 30.4505 27.2929 33.3433C27.8864 33.7437 27.4599 33.8044 27.5405 34.109C26.2867 33.5218 25.1383 32.6354 24.1946 31.5503C24.695 32.284 25.2358 32.997 25.9348 33.5568C24.7523 33.1564 23.1732 30.6923 22.7117 30.5918C24.7502 34.2406 30.98 36.9913 34.2428 35.6269C32.7329 35.6822 30.8155 35.6577 29.1192 35.0308C28.407 34.6642 27.4384 33.9048 27.6114 33.7622C32.0634 35.4261 36.6631 35.0228 40.5148 31.9343C41.4949 31.1707 42.5656 29.8725 42.8748 29.8544C42.4086 30.5551 42.9541 30.1919 42.5964 30.8104C43.5734 29.2355 42.1724 30.1687 43.6063 28.0901L44.1362 28.8195C43.9392 27.5126 45.7596 25.9251 45.5748 23.8575C45.9925 23.2251 46.0406 24.5375 45.5976 25.9926C46.2123 24.3789 45.7596 24.1194 45.9178 22.7876C46.0882 23.2356 46.3123 23.7106 46.4274 24.1831C46.0266 22.6239 46.8388 21.5565 47.0391 20.6508C46.8421 20.563 46.4215 21.3401 46.3253 19.4982C46.3397 18.6983 46.5481 19.0793 46.6282 18.8823C46.4709 18.7916 46.0591 18.1786 45.8081 17.0024C45.9899 16.7261 46.2937 17.7188 46.5418 17.7597C46.3823 16.8244 46.1081 16.1114 46.0975 15.3934C45.3748 13.8835 45.8419 15.595 45.2555 14.7454C44.4864 12.3462 45.8938 14.1885 45.9887 13.0988C47.1543 14.7876 47.8192 17.4053 48.1242 18.4891C47.8913 17.1674 47.5154 15.887 47.056 14.6479C47.41 14.7973 46.4856 11.9285 47.5163 13.8282C46.4156 9.77822 42.8056 5.99442 39.4846 4.21875C39.8905 4.59042 40.4039 5.05786 40.22 5.13084C38.5683 4.14745 38.8586 4.07067 38.6223 3.65512C37.2765 3.10795 37.1884 3.699 36.2974 3.65639C33.761 2.31145 33.2721 2.45405 30.9383 1.61114L31.0446 2.10769C29.3638 1.54786 29.0867 2.31989 27.2709 2.10937C27.16 2.02289 27.8527 1.79719 28.4226 1.71408C26.7984 1.92839 26.8744 1.39387 25.2847 1.77314C25.6767 1.4985 26.0901 1.31667 26.5082 1.08253C25.1839 1.16311 23.3462 1.85372 23.9132 1.22555C21.7528 2.18995 17.915 3.54291 15.7617 5.56242L15.6938 5.10975C14.7071 6.2948 11.3907 8.64802 11.1266 10.1815L10.8629 10.2431C10.3491 11.1122 10.0175 12.0977 9.60997 12.9925C8.93834 14.137 8.62531 13.4329 8.72108 13.6122C7.39976 16.2907 6.74375 18.541 6.17717 20.3863C6.58133 20.9904 6.18645 24.0203 6.33959 26.4461C5.6764 38.4248 14.7467 50.055 24.6616 52.7411C26.115 53.26 28.2758 53.2406 30.1139 53.2942C27.9451 52.6736 27.6645 52.966 25.5522 52.229C24.0275 51.5114 23.6938 50.6917 22.6143 49.7551L23.042 50.5103C20.9247 49.7614 21.811 49.583 20.0881 49.0375L20.545 48.4418C19.8586 48.3899 18.7271 47.2859 18.4179 46.6737L17.6674 46.7033C16.7654 45.5903 16.2849 44.7888 16.3199 44.1674L16.0773 44.5994C15.8022 44.1273 12.7593 40.4257 14.3379 41.2876C14.0443 41.0189 13.6545 40.851 13.2318 40.0828L13.5532 39.7153C12.793 38.7383 12.1547 37.4849 12.2032 37.0676C12.6082 37.6152 12.8896 37.7173 13.1681 37.8114C11.2494 33.0505 11.1418 37.549 9.68844 32.9653L9.99598 32.9404C9.76016 32.5852 9.61714 32.1996 9.42772 31.8216L9.56103 30.4881C8.17981 28.8908 9.17459 23.6967 9.37414 20.8478C9.51251 19.6893 10.5271 18.4562 11.2992 16.5227L10.8292 16.4417C11.7282 14.8736 15.9621 10.144 17.923 10.3874C18.8727 9.19392 17.7349 10.3828 17.5492 10.0824C19.6354 7.92281 20.2914 8.55647 21.6996 8.16834C23.2184 7.2668 20.3965 8.51977 21.1162 7.82452C23.7415 7.15416 22.9767 6.30028 26.4014 5.95983C26.763 6.16528 25.5632 6.27708 25.262 6.54412C27.4494 5.47425 32.1841 5.71767 35.2591 7.13812C38.8273 8.80537 42.8364 13.7354 42.9946 18.3731L43.1748 18.4212C43.0836 20.2648 43.457 22.3969 42.8098 24.3553L43.2499 23.4267ZM21.614 29.6857L21.4917 30.2965C22.0641 31.0749 22.5189 31.9178 23.2496 32.5253C22.724 31.4985 22.3329 31.074 21.614 29.6857ZM22.9674 29.6325C22.6645 29.2971 22.4847 28.8938 22.2839 28.4918C22.4763 29.1984 22.8695 29.8055 23.2353 30.4231L22.9674 29.6325ZM46.9235 24.4253L46.7953 24.7468C46.5594 26.4347 46.0464 28.0721 45.277 29.5928C46.1306 27.9827 46.6883 26.2325 46.9235 24.4253ZM27.9927 0.967359C28.5817 0.750937 29.441 0.848812 30.0658 0.707062C29.2516 0.775406 28.4408 0.816327 27.6401 0.919265L27.9927 0.967359ZM7.30948 11.9652C7.44533 13.222 6.36364 13.7097 7.54869 12.8811C8.18403 11.451 7.30062 12.4867 7.30948 11.9652ZM5.91687 17.782C6.1894 16.9442 6.23919 16.4405 6.34339 15.9562C5.58908 16.9201 5.99619 17.126 5.91687 17.782Z" fill="#A80030"/>
</svg>
