<svg width="54" height="54" viewBox="0 0 54 54" fill="none" xmlns="http://www.w3.org/2000/svg">
<g clip-path="url(#clip0_268_1205)">
<path d="M19.1953 54.4219C24.2156 54.4219 28.2656 50.3719 28.2656 45.3516V36.2812H19.1953C14.175 36.2812 10.125 40.3313 10.125 45.3516C10.125 50.3719 14.175 54.4219 19.1953 54.4219Z" fill="#0ACF83"/>
<path d="M10.125 27.2109C10.125 22.1906 14.175 18.1406 19.1953 18.1406H28.2656V36.2812H19.1953C14.175 36.2812 10.125 32.2312 10.125 27.2109Z" fill="#A259FF"/>
<path d="M10.125 9.07031C10.125 4.05 14.175 0 19.1953 0H28.2656V18.1406H19.1953C14.175 18.1406 10.125 14.0906 10.125 9.07031Z" fill="#F24E1E"/>
<path d="M28.2656 0H37.3359C42.3562 0 46.4062 4.05 46.4062 9.07031C46.4062 14.0906 42.3562 18.1406 37.3359 18.1406H28.2656V0Z" fill="#FF7262"/>
<path d="M46.4062 27.2109C46.4062 32.2312 42.3562 36.2812 37.3359 36.2812C32.3156 36.2812 28.2656 32.2312 28.2656 27.2109C28.2656 22.1906 32.3156 18.1406 37.3359 18.1406C42.3562 18.1406 46.4062 22.1906 46.4062 27.2109Z" fill="#1ABCFE"/>
</g>
<defs>
<clipPath id="clip0_268_1205">
<rect width="54" height="54" fill="white"/>
</clipPath>
</defs>
</svg>
