<svg width="50" height="50" viewBox="0 0 50 50" fill="none" xmlns="http://www.w3.org/2000/svg">
<path d="M20.5814 4.41875L18.4064 6.59375L21.3908 9.57813L24.5158 12.7031C25.2275 12.351 26.0173 12.1864 26.8105 12.2249C27.6036 12.2633 28.3738 12.5036 29.0482 12.9229C29.7225 13.3422 30.2787 13.9267 30.664 14.621C31.0493 15.3154 31.2511 16.0965 31.2501 16.8906C31.2333 17.5992 31.0683 18.2965 30.7658 18.9375L33.9845 22.0625C34.8286 21.5748 35.8165 21.3969 36.7777 21.5595C37.739 21.7221 38.6133 22.2149 39.2501 22.9531C39.6951 23.3798 40.0469 23.894 40.2836 24.4632C40.5202 25.0325 40.6365 25.6446 40.6251 26.2609C40.6261 27.4918 40.1462 28.6743 39.2876 29.5563C38.8557 30.0074 38.3351 30.3644 37.7586 30.6048C37.1821 30.8451 36.5621 30.9637 35.9376 30.9531C35.3199 30.9628 34.7065 30.8474 34.1346 30.6138C33.5626 30.3802 33.0438 30.0332 32.6095 29.5938C31.8736 28.9516 31.384 28.0736 31.2243 27.1101C31.0647 26.1466 31.245 25.1576 31.7345 24.3125L28.6095 21.0938C28.4516 21.1652 28.2899 21.2278 28.1251 21.2813V31.25C29.0323 31.5731 29.8179 32.1678 30.3751 32.9531C30.9439 33.7338 31.2503 34.6748 31.2501 35.6406C31.2624 36.2594 31.1469 36.874 30.9109 37.4462C30.6748 38.0183 30.3233 38.5355 29.8783 38.9656C29.0274 39.8155 27.8806 40.3032 26.6783 40.3266C25.8094 40.3537 24.9503 40.1372 24.1981 39.7015C23.4459 39.2658 22.8306 38.6282 22.4219 37.861C22.0132 37.0938 21.8273 36.2276 21.8853 35.3602C21.9433 34.4929 22.2429 33.6591 22.7501 32.9531C23.3074 32.1678 24.093 31.5731 25.0001 31.25V21.2813C24.091 20.9618 23.3044 20.3664 22.7501 19.5781C22.1794 18.7985 21.8728 17.8568 21.8751 16.8906C21.8738 16.1798 22.0397 15.4786 22.3595 14.8438L16.2658 8.75L4.42357 20.5813C3.84283 21.1615 3.38211 21.8506 3.06773 22.609C2.75334 23.3674 2.59145 24.1803 2.59131 25.0012C2.59116 25.8222 2.75276 26.6352 3.06688 27.3937C3.381 28.1522 3.84147 28.8414 4.42201 29.4219L20.5814 45.5813C21.7534 46.7529 23.3429 47.4112 25.0001 47.4112C26.6574 47.4112 28.2468 46.7529 29.4189 45.5813L45.5814 29.4187C46.7531 28.2467 47.4113 26.6573 47.4113 25C47.4113 23.3427 46.7531 21.7533 45.5814 20.5813L29.4189 4.41875C28.2468 3.24706 26.6574 2.58884 25.0001 2.58884C23.3429 2.58884 21.7534 3.24706 20.5814 4.41875Z" fill="#E64A19"/>
</svg>
