<svg width="128" height="47" viewBox="0 0 128 47" fill="none" xmlns="http://www.w3.org/2000/svg">
<g clip-path="url(#clip0_268_408)">
<path d="M0 0H128V47H0V0Z" fill="#262626"/>
<path d="M46.2289 12.715C48.0539 12.715 49.7484 13.3667 49.7484 13.8665C49.7484 14.1707 49.3574 14.931 49.1184 14.931C48.9229 14.931 48.0322 14.1272 46.2504 14.1272C42.9914 14.1272 41.9269 16.0175 41.9269 19.233C41.9269 22.0575 42.7744 24.4472 46.0549 24.4472L46.1794 24.4467C47.0914 24.438 47.9659 24.333 48.4232 24.2085V20.4932H46.2722C46.0117 20.4932 45.9029 20.3192 45.9029 19.95V19.6457C45.9029 19.2547 46.0117 19.1025 46.2722 19.1025H49.5097C49.9007 19.1025 50.0527 19.2762 50.0527 19.6457V24.5342C50.0527 25.577 48.0539 25.8597 45.9464 25.8597C42.2747 25.8597 40.2539 23.7955 40.2539 19.4067C40.2539 14.8007 42.3832 12.715 46.2289 12.715ZM51.9647 25.3817V18.9072C51.9647 17.4057 51.7529 16.6877 51.7477 16.586V16.5825C51.7477 16.235 52.5077 16.148 52.7469 16.148C53.1814 16.148 53.2902 16.8865 53.3987 17.3645C54.0287 16.4737 54.7674 15.974 55.5279 15.974C56.2449 15.974 56.5924 16.2782 56.5924 16.691C56.5924 17.0385 56.4402 17.6905 56.2229 17.6905C55.9842 17.6905 55.8319 17.495 55.2019 17.495C54.2459 17.495 53.5069 18.6247 53.5069 18.6247V25.3817C53.5069 25.6425 53.2899 25.7945 52.7684 25.7945H52.7034C52.1819 25.7945 51.9647 25.6425 51.9647 25.3817ZM61.6329 15.9742C64.1532 15.9742 65.4352 17.647 65.4352 20.7757C65.4352 20.993 65.0442 21.536 64.8269 21.536H59.0042C59.1562 23.5785 60.0252 24.5127 61.8504 24.5127C63.4579 24.5127 64.3489 23.7302 64.5444 23.7302C64.8052 23.7302 65.1962 24.4475 65.1962 24.643C65.1962 25.0775 63.7404 25.8162 61.8722 25.8162C58.8392 25.8162 57.3822 24.283 57.3534 21.048L57.3529 20.9495C57.3312 17.712 58.8087 15.9742 61.6329 15.9742ZM63.7839 20.2322C63.7839 18.2987 63.0452 17.321 61.5679 17.321C59.9602 17.321 59.1129 18.2985 58.9824 20.2322H63.7839ZM71.1927 15.9737C73.7129 15.9737 74.9949 17.6467 74.9949 20.7755C74.9949 20.9927 74.6039 21.5357 74.3864 21.5357H68.5639C68.7159 23.5782 69.5849 24.5125 71.4102 24.5125C73.0177 24.5125 73.9087 23.73 74.1042 23.73C74.3649 23.73 74.7559 24.4472 74.7559 24.6427C74.7559 25.0772 73.3004 25.816 71.4317 25.816C68.3682 25.816 66.9127 24.2517 66.9127 20.9492C66.9127 17.7117 68.3682 15.9737 71.1927 15.9737ZM73.3652 20.2322C73.3652 18.2987 72.6267 17.321 71.1492 17.321C69.5417 17.321 68.6942 18.2985 68.5639 20.2322H73.3652ZM76.6677 25.338V18.9075L76.6674 18.792C76.6569 17.369 76.4559 16.6855 76.4507 16.5862V16.5827C76.4507 16.2352 77.2109 16.1482 77.4499 16.1482C77.8844 16.1482 77.9932 16.8867 78.1017 17.3647C78.8839 16.4957 79.9484 15.9742 80.9697 15.9742C82.8597 15.9742 83.9679 17.1042 83.9679 18.9507V25.3385C83.9679 25.5992 83.7504 25.7512 83.2292 25.7512H83.1642C82.6424 25.7512 82.4252 25.5992 82.4252 25.3385V19.081C82.4252 17.9515 81.7517 17.2997 80.5352 17.2997C79.7094 17.2997 78.8187 17.7995 78.2102 18.5815V25.3385C78.2102 25.5992 77.9929 25.7515 77.4714 25.7515H77.4064C76.8849 25.7515 76.6677 25.5992 76.6677 25.3385" fill="white"/>
<path d="M87.2704 22.6225C87.5964 22.6225 88.5086 23.4697 89.9864 23.4697L90.0399 23.4695C90.8114 23.4585 91.7244 23.2055 91.7244 22.1227C91.7244 19.95 86.4014 20.7972 86.4014 16.452C86.4014 13.7362 88.6174 12.6717 90.7684 12.6717C92.7239 12.6717 94.0924 13.345 94.0924 13.9535C94.0924 14.4535 93.5274 15.5612 93.0714 15.5612C92.8324 15.5612 92.2676 15.105 91.0291 15.105C89.5951 15.105 89.3129 15.7785 89.3129 16.1915C89.3129 18.299 94.6356 17.4515 94.6356 21.7752C94.6356 24.8387 92.4846 25.8597 90.4641 25.8597C87.6616 25.8597 86.1406 24.8602 86.1406 24.2305C86.1406 23.687 86.8794 22.6225 87.2706 22.6225M100.198 15.9525C103.131 15.9525 104.652 17.7122 104.652 20.906C104.652 24.1215 103.131 25.8815 100.198 25.8815C97.2646 25.8815 95.7221 24.1215 95.7221 20.906C95.7221 17.6905 97.2646 15.9522 100.198 15.9522M101.892 20.961L101.892 20.906C101.892 19.059 101.371 18.103 100.198 18.103C99.0244 18.103 98.4811 19.059 98.4811 20.9057C98.4811 22.7525 99.0244 23.7302 100.198 23.7302C101.359 23.7302 101.882 22.772 101.892 20.961ZM110.583 15.952L110.662 15.9525C111.956 15.9695 113.647 16.4035 113.647 17.234C113.647 17.5815 112.973 18.6462 112.669 18.6462C112.604 18.6462 112.495 18.5812 112.343 18.5157L112.27 18.4777C111.944 18.309 111.461 18.103 110.735 18.103C109.272 18.103 108.662 18.9975 108.65 20.8492V20.9057C108.65 22.7957 109.214 23.7302 110.626 23.7302C111.495 23.7302 112.082 23.4695 112.43 23.2957L112.488 23.2707C112.61 23.2197 112.699 23.187 112.756 23.187C113.168 23.187 113.712 24.23 113.712 24.5775C113.712 25.6202 111.083 25.8595 110.496 25.8595C107.346 25.8595 105.847 24.2517 105.847 20.9495C105.847 17.6902 107.281 15.952 110.583 15.952ZM115.037 12.4325C115.037 12.0482 115.352 11.8527 116.104 11.846H116.666C117.449 11.846 117.775 12.0412 117.775 12.4325V19.7325L117.84 19.7542L120.077 16.4085C120.289 16.1122 120.645 16.0632 121.165 16.0607H121.881C122.576 16.0607 122.924 16.1692 122.924 16.3432C122.924 16.4247 122.866 16.5452 122.769 16.6857L120.186 20.3625L123.184 25.1205L123.258 25.2665C123.306 25.3622 123.336 25.437 123.336 25.5117C123.336 25.6855 123.01 25.7942 122.294 25.7942H121.511L121.429 25.7935C120.929 25.7867 120.568 25.7145 120.403 25.4465L117.84 21.21L117.775 21.2317V25.2077C117.775 25.5987 117.449 25.7942 116.666 25.7942H116.145C115.363 25.7942 115.037 25.5987 115.037 25.2077V12.4325Z" fill="#88CE02"/>
<path d="M6.22978 20.754C5.12153 21.275 2.18853 23.6218 1.62378 24.317C1.03703 25.0123 0.863283 23.926 1.47153 22.1228C1.94953 20.667 3.16628 18.6898 5.20853 16.9953C6.40353 16.0175 9.03253 14.6053 10.64 13.7795C10.966 13.6058 15.181 11.8243 18.9398 10.9335C19.2658 10.8465 18.5488 11.4765 18.4398 11.8243C17.875 13.4755 6.59903 20.5583 6.59903 20.5583L6.22978 20.754ZM22.1118 40.677C22.3073 41.8503 22.1335 41.9373 20.9168 42.0895C19.7 42.2415 18.8093 41.7853 18.4835 41.481C18.1578 41.1768 18.0925 40.5035 18.4185 39.895C18.614 39.504 18.8095 39.3735 18.9183 38.8955C19.0268 38.4393 19.1138 38.3305 19.2005 38.157C19.2873 38.0045 19.3093 37.8525 19.3308 36.788C19.3523 35.7235 19.3308 33.7245 19.4395 32.8773C19.5483 32.0083 23.307 33.2683 23.307 33.2683C23.307 33.2683 22.416 35.4845 22.177 36.0275C21.938 36.5705 21.9598 37.6138 21.9598 37.831C21.9598 38.0483 21.873 38.4828 21.8078 38.5045C21.7428 38.526 22.0253 39.091 21.8945 39.417C21.8078 39.7213 22.09 40.5033 22.1118 40.677ZM23.5458 7.45725C23.4153 6.6315 23.5458 5.002 23.7195 4.74125C24.2628 4.0025 27.1308 3.91575 27.739 4.78475C27.9998 5.17575 27.978 6.08825 27.9345 6.67475C27.8913 7.2615 27.739 8.52175 27.7173 8.93475C27.6958 9.23875 24.5453 9.71675 23.8498 8.891C23.6543 8.674 23.5458 7.45725 23.5458 7.45725ZM29.9335 38.5695C31.2585 39.5258 32.2798 39.6995 32.9535 40.047C33.6268 40.3948 33.453 41.0683 32.3235 41.2638C31.4108 41.4375 29.9768 41.09 29.021 41.09C28.0653 41.09 25.9358 41.1985 25.3708 40.8075C24.719 40.3513 25.0013 39.504 25.0013 39.504C25.1753 39.026 25.6098 37.9615 25.4793 37.0923C25.349 36.2233 25.175 35.7453 24.8493 34.9413C24.5233 34.1375 24.2843 32.1605 24.5888 32.0518C24.8928 31.943 24.8058 32.0518 25.197 32.1385C25.588 32.2255 26.0225 32.356 26.87 32.356C27.7175 32.356 28.6515 32.2255 28.9775 32.1603C29.3033 32.0953 29.564 32.0298 29.4553 32.7035C29.3468 33.377 29.0208 34.637 28.999 35.6148C28.9773 36.5925 28.9775 37.7223 29.0428 37.9178C29.1078 38.1135 29.5858 38.3308 29.9335 38.5695Z" fill="black"/>
<path d="M25.2841 9.63001C22.8941 11.694 18.2666 12.2588 11.4009 14.9095C9.64086 15.583 4.94836 17.6035 3.81836 19.711C7.62036 17.5168 9.03261 20.5368 9.33686 23.6435C9.61936 26.555 11.0749 28.076 14.8119 27.9888C18.6576 27.902 19.8309 30.1398 20.8954 32.7688C22.9594 22.7093 26.2619 20.7538 28.3909 19.0375C32.9101 15.3658 27.3484 8.89126 25.2841 9.63001Z" fill="#88CE02"/>
<path d="M25.2843 9.63001C19.5485 11.6288 13.8778 12.1285 7.20777 16.235C5.62177 17.2125 2.27577 19.4283 1.62402 23.665C4.05727 20.971 9.68452 17.5818 16.5718 15.4308C20.048 14.3443 22.5903 13.6275 25.6753 12.4325C25.4583 11.0418 25.4583 10.499 25.2843 9.63001Z" fill="#88CE02"/>
<path d="M32.6058 21.536C32.6058 21.536 32.1933 22.9485 31.3676 23.4048C31.3676 23.4048 30.7591 23.622 29.5426 22.9485C29.1951 22.753 28.9343 22.0795 28.9558 21.862C28.9776 21.3405 29.3033 21.1018 29.3033 21.1018C29.3033 21.1018 29.6513 20.515 30.0638 20.5368C30.4768 20.5585 31.1721 20.6235 31.3893 20.428C31.5848 20.2108 32.6493 20.819 32.6058 21.536ZM23.7416 7.87C23.7416 7.87 23.6546 8.97825 23.5026 9.6735C23.4808 9.80375 22.8291 9.869 22.3511 10.0645C23.2636 12.6718 28.7603 12.65 29.4773 11.368C29.1298 11.1293 28.4346 10.7598 28.1086 10.6295C27.7826 10.4993 27.8043 10.5208 27.7826 9.9125C27.7611 9.304 27.7176 8.17425 27.6741 7.87C27.6306 7.56575 24.2628 7.56575 23.7416 7.87Z" fill="black"/>
<path d="M23.9591 7.87C23.9591 7.87 23.9591 8.5 23.8938 9.1085C23.8721 9.391 23.8503 9.56475 23.8071 9.782C23.7853 9.9125 24.5456 10.4338 24.7631 11.5853C25.8058 13.91 28.2176 12.7585 29.2168 11.6503C28.8693 11.4115 28.3043 11.0855 27.6526 10.8248C27.3266 10.6945 27.4788 10.4123 27.4571 9.80375C27.4353 9.19525 27.3483 8.3045 27.3051 7.97875C27.2613 7.65275 24.4806 7.56575 23.9591 7.87Z" fill="#EFEFEF"/>
<path d="M23.7418 7.87C23.7418 7.87 23.72 8.26125 23.6548 8.7175C23.9373 9 24.3065 9.391 24.589 9.63C24.7848 9.80375 25.2625 9.782 25.6973 9.782C26.0883 9.782 26.4358 9.8255 26.588 9.73875C26.9355 9.56475 27.4355 9.13025 27.7178 8.8045C27.696 8.41325 27.6743 8.044 27.6528 7.87C27.6308 7.56575 24.263 7.56575 23.7418 7.87Z" fill="black"/>
<path d="M25.7188 9.52125C25.458 9.52125 25.1538 9.49975 24.915 9.45625C24.8063 9.4345 24.6975 9.36925 24.6108 9.32575C24.4585 9.217 24.3065 9.08675 24.1328 8.9565C23.7853 8.69575 23.7635 8.5435 23.7635 8.4785C23.9155 7.10975 23.72 5.95825 23.72 5.95825C23.72 5.95825 23.5678 5.3715 24.3935 5.2195C25.2193 5.0675 25.7185 5.04575 25.7185 5.04575C25.7185 5.04575 26.2403 5.04575 27.044 5.2195C27.8698 5.3715 27.7175 5.95825 27.7175 5.95825C27.7175 5.95825 27.522 7.10975 27.6743 8.4785C27.6743 8.5435 27.6525 8.69575 27.3048 8.9565C27.0005 9.17375 26.7615 9.4125 26.5228 9.456C26.2838 9.49975 25.9795 9.52125 25.7188 9.52125Z" fill="black"/>
<path d="M25.7189 4.48074C24.2851 4.48074 24.0024 4.87174 23.5896 5.30624C23.5029 5.41499 23.5679 6.06674 23.7201 7.45724H23.9156C23.9156 7.45724 23.7851 7.06624 23.8069 6.60974C23.8286 6.15374 23.9156 6.17549 23.8504 6.06674C23.7636 5.93624 23.5896 5.71924 23.9809 5.50174C24.3721 5.28424 24.9801 5.67574 25.7189 5.69749C26.4576 5.67574 27.0876 5.28449 27.4789 5.50174C27.8699 5.71924 27.6961 5.93624 27.6091 6.06674C27.5224 6.19699 27.6309 6.15349 27.6526 6.60999C27.6634 6.89656 27.6266 7.18292 27.5439 7.45749H27.7394C27.8699 6.06674 27.9569 5.45849 27.8916 5.34999C27.5221 4.87174 27.1526 4.50249 25.7189 4.48074ZM32.6061 21.6012C32.6061 21.6012 32.1936 22.9265 31.3896 23.3827C31.2156 23.296 31.2374 23.1657 31.0854 22.9702C31.0419 22.905 30.8896 22.8612 30.8246 22.7962C30.7596 22.7312 30.7811 22.6225 30.6726 22.5355C30.5856 22.4487 30.5204 22.5137 30.4336 22.4487C30.3466 22.3617 30.3249 22.253 30.2599 22.188C30.2161 22.1445 30.0424 22.123 29.9991 22.0792C29.8904 21.9707 28.9346 21.7752 28.9779 21.5577C29.0649 21.232 29.2386 20.9927 29.2386 20.9927C29.2386 20.9927 29.6514 20.3847 30.0641 20.4062C30.4769 20.428 30.8681 20.515 31.0854 20.3195C31.3244 20.102 32.6714 20.906 32.6061 21.6012Z" fill="black"/>
<path d="M29.7816 11.9983C29.7816 11.9983 31.1503 11.6723 32.0846 12.5633C33.0188 13.4758 32.9536 14.6053 32.6711 15.3008C32.9101 15.5833 33.3446 16.365 33.0186 17.2995C34.4528 18.516 33.8226 20.3845 32.5411 21.623C32.5411 21.623 32.2366 20.493 31.0201 20.428C31.0633 19.9935 29.8901 19.6458 30.4333 18.516C29.6078 18.3205 29.6296 17.7558 29.4991 17.0605C29.3903 16.365 29.7816 11.9983 29.7816 11.9983Z" fill="black"/>
<path d="M29.2819 12.6065C29.2819 12.6065 30.8679 11.8028 31.8021 12.7153C32.7364 13.6278 32.4756 14.627 32.1931 15.3223C32.4321 15.6048 32.9969 16.4088 32.6494 17.3648C32.5844 17.5818 32.1061 17.5818 31.7584 18.1468C32.6276 17.6468 33.1709 17.7775 33.3664 18.4073C33.6704 19.385 32.9969 20.5583 32.4104 21.2103C32.4104 21.1885 32.3886 21.1665 32.3886 21.145C32.3016 21.471 32.1931 22.101 31.5411 22.7963C31.2154 23.1438 30.9546 23.1005 30.5854 23.0135C30.1509 22.9048 29.9986 22.709 29.3904 22.3835C29.0429 22.1878 29.2384 21.9488 29.2384 21.7535C29.2384 21.7098 29.2816 21.6445 29.3469 21.5578C29.3904 21.449 29.5206 21.2753 29.7161 21.0798C29.7161 21.0798 29.9986 20.6888 30.4116 20.7105C30.8244 20.7323 31.2589 20.6455 31.3676 20.5368C31.3676 19.7763 30.4986 19.7543 30.8026 18.451C30.8244 18.3858 30.9331 18.277 31.2806 18.2335C30.7591 18.125 30.5201 18.1033 30.1506 17.7558C29.8901 17.5168 29.6946 17.2125 29.6294 16.8215C29.4991 16.148 29.2819 12.6065 29.2819 12.6065Z" fill="#EFEFEF"/>
<path d="M24.6973 11.2377C24.567 11.064 23.8935 10.195 22.6115 9.84724C22.2423 9.73849 22.0033 10.0427 21.634 10.26C21.5253 10.195 21.0473 9.97749 20.7865 10.1295C20.526 10.2815 20.3523 10.4337 20.0915 10.5425C19.961 10.4772 19.6135 10.4772 19.331 10.5857C19.0485 10.6727 18.614 10.8682 18.201 11.4332C17.9405 12.3675 22.807 11.672 22.807 11.672L24.6973 11.2377Z" fill="black"/>
<path d="M24.741 11.2377C24.0458 10.9987 24.1545 10.195 22.6118 10.0645C22.3078 10.0427 22.112 10.2817 21.8948 10.4337C22.0035 10.5425 22.1123 10.7162 22.1773 10.89C21.9818 10.6727 21.6343 10.3902 21.2865 10.325C20.9605 10.26 20.7433 10.499 20.3958 10.6727C20.4608 10.7377 20.5258 10.8465 20.6128 10.977C20.3085 10.7815 20.0915 10.7165 19.6785 10.8685C19.396 10.9552 18.853 11.1942 18.4403 11.781C18.1795 12.7152 22.829 11.6722 22.829 11.6722L24.741 11.2377Z" fill="#88CE02"/>
<path d="M28.8259 11.5855C28.8259 11.5855 28.8259 11.3462 28.8042 11.1292C28.8042 11.0857 28.6304 10.977 28.6304 10.9337L28.5869 10.8902C28.5869 10.8902 28.9344 10.6945 29.1952 10.8032C29.4777 10.8902 29.6297 11.2595 29.6297 11.2595C30.1297 11.0857 30.1729 11.2812 30.4119 11.542C30.9334 11.4332 30.9984 11.6287 31.3244 12.107C31.3244 12.107 30.9334 12.0417 30.1729 12.172C29.4342 12.2805 28.8259 11.5637 28.8259 11.5855Z" fill="black"/>
<path d="M28.7388 11.4768C28.7388 11.4768 28.869 11.368 28.8255 11.3463C29.0645 11.216 29.3905 11.0638 29.5425 11.4768C30.0425 11.3028 30.1075 11.5418 30.3465 11.8028C30.9548 11.5203 30.9983 11.8678 31.0415 12.0198C30.8463 12.0198 30.564 12.0415 30.1728 12.085C29.434 12.1938 28.717 11.455 28.7388 11.4768Z" fill="#88CE02"/>
<path d="M21.3519 10.9335C21.3519 10.9335 22.5904 11.368 23.6331 11.3028C24.6761 11.216 26.4576 11.129 27.4136 11.694C27.4136 11.694 28.3911 11.3463 29.3036 11.5853C30.2164 11.8243 31.8894 13.3885 31.3896 15.0398C31.3461 15.1485 31.0636 15.3223 30.7379 15.431C30.7379 15.431 30.9116 16.1695 30.6074 16.778C30.3034 17.3645 29.6299 18.4945 29.6081 20.0588C29.5864 20.3193 29.5431 20.8625 29.4994 21.1233C27.8046 21.0583 25.1976 20.428 22.6339 20.4715C22.6554 20.189 22.6771 20.0153 22.6989 19.7328H22.7639C22.6339 19.0158 22.5904 18.6465 22.4599 18.1033C21.6344 17.5818 20.7651 16.9735 20.0266 15.822C19.3096 14.6705 21.3519 10.9335 21.3519 10.9335ZM29.7384 22.666C29.7384 22.666 31.0854 27.4893 29.4994 29.5098C29.4994 29.5098 29.7384 30.444 29.1951 31.4435C29.1084 31.878 28.9996 32.269 28.9346 32.7035C28.6521 34.507 28.1739 35.2673 28.0436 38.157L26.7399 38.1353C26.7399 38.1353 26.5879 36.0495 26.1316 34.9415C25.8711 34.3115 24.8496 33.464 24.8934 32.6168C24.9369 31.965 25.0671 31.4218 26.1754 30.5528C26.2621 29.2928 25.0019 28.0975 25.1976 23.4045L29.7384 22.666Z" fill="black"/>
<path d="M29.3474 22.4703C29.6949 24.6865 30.4989 27.9673 29.0432 29.5748C29.1082 29.879 29.1517 30.3135 29.0649 30.8133C29.0214 31.074 28.9344 31.3565 28.8259 31.6605C28.6084 32.182 28.5217 32.9425 28.4564 33.3985C28.1739 35.202 28.1739 35.289 28.0439 38.1785L26.7399 38.1568C26.7399 38.1568 26.5879 36.071 26.1317 34.963C25.8712 34.333 25.3279 33.7898 25.2844 32.9425C25.2409 32.2908 25.6972 30.9873 26.7837 31.0305C26.7187 28.4018 25.5017 28.923 25.1759 23.448L29.3474 22.4703ZM21.3519 10.9335C21.3519 10.9335 21.8299 11.0858 22.3514 11.129C22.8729 11.1723 23.4377 11.129 23.9374 11.1073C24.9802 11.0205 26.4577 10.9118 27.4354 11.4768C27.4354 11.4768 27.9784 11.3028 28.5654 11.3463C28.8259 11.368 29.0867 11.5853 29.3907 11.6723C30.3467 11.9113 31.2592 13.4973 30.8464 14.9313C30.8029 15.04 30.4989 14.9313 30.1512 15.04C30.2162 15.344 30.2599 16.0393 29.9122 16.778C29.5427 17.5168 29.0647 18.4728 29.1517 20.298C26.8704 20.189 25.8492 20.037 23.5897 19.9285C23.3942 19.1245 23.2637 18.3208 23.2422 17.9078C23.5462 17.7558 23.7197 17.6255 23.9589 17.3648C23.3072 17.4735 23.0464 17.4298 22.6554 17.2125C22.2644 16.9953 21.5689 16.3 21.2214 15.8438C21.1779 15.8003 20.9389 16.5173 20.3959 16.539C20.2002 16.2565 21.0259 15.4528 20.8737 15.1485C20.3307 14.0405 21.3519 10.9335 21.3519 10.9335Z" fill="#EFEFEF"/>
<path d="M29.5209 20.667C29.5209 20.667 29.5644 21.4492 29.5644 21.6445C29.5644 21.862 29.7384 22.5137 29.7599 22.818C29.5209 23.2305 28.4782 24.165 26.5879 24.5127C24.7194 24.9037 22.2427 21.9707 22.2427 21.9707C22.3077 21.6882 22.5252 20.8625 22.6772 20.4282C22.6989 20.3847 22.7422 20.2757 22.7422 20.2325C22.9379 19.95 29.5209 20.667 29.5209 20.667Z" fill="black"/>
<path d="M29.043 20.7325C29.043 21.2755 29.1297 21.6665 29.195 22.0143C29.3037 22.6443 29.4775 23.057 29.4775 23.4698C29.4775 24.7298 27.8262 24.5128 26.4357 24.5563C24.5672 24.9473 22.981 22.0143 22.981 22.0143C23.1115 21.5143 23.1985 20.9498 23.394 20.4718C23.4163 20.2248 23.4453 19.9784 23.4807 19.733C26.1315 19.733 28 19.885 29.0862 19.9935C29.1297 20.2325 29.0862 20.6455 29.043 20.7325Z" fill="#EFEFEF"/>
<path d="M26.9568 23.535C26.9568 23.535 25.8055 20.9713 22.3508 21.7318C21.5253 24.0565 20.4173 26.7288 21.1343 29.6185C20.4173 30.596 19.5918 31.1395 19.5918 32.9425C19.5918 34.746 19.6785 35.05 19.6785 35.05L22.2205 35.1805C22.2205 35.1805 23.046 34.116 23.372 32.9645C23.4588 32.6385 23.5458 32.052 23.4805 31.3785C23.5675 31.248 23.9368 30.944 23.9805 30.3573C23.9805 30.3573 25.2188 29.7055 25.9358 28.1198C26.6093 26.6853 26.4355 25.4473 26.9568 23.535Z" fill="black"/>
<path d="M26.9571 23.535C26.8921 23.296 26.0231 20.9495 22.8074 21.6447C20.9174 26.6852 21.6124 28.771 21.8949 29.6835C20.6131 31.313 20.0264 31.6605 20.2874 34.963H21.9819C22.7641 33.7247 22.9379 33.2685 22.9814 31.639C22.9814 31.574 22.7424 31.7692 22.5686 31.9865C22.6991 31.313 23.0684 31.1827 23.3506 30.77C23.4811 30.596 23.5896 30.3352 23.5896 29.9875C25.1106 28.9665 25.6754 27.6847 26.0014 26.3592C26.2621 25.4467 26.5664 23.9477 26.9571 23.535Z" fill="#EFEFEF"/>
<path d="M21.5908 20.037C21.5908 20.037 22.1775 20.0588 22.699 20.2325C23.1985 20.4063 23.1985 20.515 23.394 20.7325C23.5898 20.9498 24.0678 21.2755 23.9808 21.6013C23.9373 21.7753 23.8288 21.8188 23.6765 21.9708C23.6115 22.0358 23.1333 22.5573 23.0248 22.6225C22.9598 22.6658 22.8728 22.731 22.8073 22.7745L22.4815 22.992C22.2643 23.1005 22.1123 23.1658 21.8733 23.144C21.8733 23.144 21.3303 23.1223 20.9825 22.7528C20.9825 22.7528 20.939 22.579 21.026 22.4923C21.026 22.4923 20.5695 22.101 20.4393 21.8403C20.3088 21.5798 20.3088 21.2103 20.3958 21.0148C20.4393 20.819 21.2865 20.2758 21.5908 20.037ZM22.134 41.177L22.069 41.7203C22.069 41.7203 21.8733 41.9593 20.4175 41.9375C18.94 41.9158 18.549 41.4595 18.4188 41.2205L18.332 40.6555C18.332 40.6555 18.6145 40.243 18.6795 40.243C19.1575 40.2863 20.787 40.938 21.917 41.1118C22.0253 41.1118 22.047 41.1555 22.134 41.177ZM25.2843 40.069C25.2843 40.3078 25.2625 40.3078 25.2625 40.547C25.5233 40.7425 26.175 40.851 27.4135 40.8293C29.2168 40.7858 30.8898 41.3725 32.932 41.0248L32.9538 40.6338L32.7583 40.612L25.5233 40.0255L25.2843 40.069Z" fill="black"/>
<path d="M26.8703 40.8292H27.4136C28.5868 40.786 29.6948 41.0467 30.8898 41.1117C31.5198 41.09 32.3021 40.938 32.2368 40.4817L26.0666 39.9602C25.6971 40.373 25.9796 40.7207 26.8703 40.8292ZM19.7876 31.6825C19.9831 31.8127 21.3083 32.595 23.4593 32.4862C23.4158 32.899 23.4376 33.703 22.4816 35.1152C22.0036 35.8102 21.5906 37.0272 21.5041 38.5697C21.5256 38.9172 21.7211 39.2215 21.4603 39.6777C21.5473 39.9602 21.8948 40.5252 22.0688 40.8727C22.2426 41.2202 22.3296 41.6115 21.1778 41.6332C20.0046 41.655 18.1143 41.5245 18.3753 40.6122C18.5056 40.1342 18.8751 39.6345 18.9186 39.4387C18.9621 39.243 18.9618 38.6567 19.3311 38.2655C19.6571 37.1792 19.5486 36.1365 19.4836 35.1587C19.3746 34.1375 19.3528 32.508 19.7876 31.6825ZM21.8081 13.9752C23.3506 11.9112 22.0471 10.2602 19.5703 10.7597C18.5708 10.9552 17.5716 11.6505 17.5063 12.9105C17.1803 12.954 16.4416 12.9975 16.0723 14.3445C15.7898 15.3875 15.6378 15.583 15.1381 16.1045C14.8121 16.4737 15.1598 17.2342 15.3986 17.7775C16.2026 19.6457 18.6793 19.8197 20.3523 21.232C20.9173 21.0797 21.5038 20.4497 21.6778 20.037C20.2653 18.364 20.5696 17.712 20.0046 16.8432C20.6131 16.6257 22.0036 15.7785 21.8081 13.9752Z" fill="black"/>
<path d="M21.5038 13.845C21.5906 13.7145 21.7428 13.432 21.8081 13.3235C21.8298 13.3017 22.0688 13.7145 22.0906 13.6927C22.6771 12.7367 22.8291 11.3462 22.1556 11.216C21.9263 11.1784 21.7009 11.1202 21.4821 11.042C21.0476 10.89 20.6566 10.89 19.9613 11.0205C19.0053 11.1942 18.0493 11.8895 18.0493 12.8887C18.0493 12.954 18.7228 13.1495 18.9183 13.9535C18.5923 13.4972 18.0276 12.9975 17.3541 13.432C16.6371 13.8882 17.0066 14.931 16.0503 16.0175C15.7243 16.3867 15.7678 16.8212 16.1153 17.6902C16.6803 19.0592 19.3528 19.7977 20.8086 21.1015C21.1561 20.9492 21.3951 20.6015 21.5688 20.341C20.5913 19.32 20.2001 18.3637 19.9178 17.6685C19.5703 16.8647 19.1791 16.4085 18.4186 15.8C18.8096 15.952 19.1138 16.1042 19.2876 16.2345C19.4831 16.365 19.7656 16.3867 20.0263 16.2995C20.9608 15.974 21.4603 14.6705 21.5038 13.845Z" fill="#EFEFEF"/>
<path d="M30.955 14.1925C30.8897 15.0183 30.2815 14.6053 29.9555 14.4533C29.3037 14.1708 28.6517 13.9753 27.8915 13.9753C27.1312 13.9753 26.1532 14.0403 25.306 14.2578C24.1327 14.5835 23.785 14.562 23.2635 14.301C22.7422 14.0185 21.8297 13.3235 21.8297 13.3235C21.8297 13.3235 21.808 13.5408 22.0255 13.8233C22.3077 14.1708 22.938 14.6053 23.7852 14.8878C24.1977 15.0183 24.524 14.931 24.8932 14.8443C26.827 14.3663 28.8692 14.2793 30.5857 15.3223C30.6725 15.3658 30.9767 15.2353 31.107 15.0398C31.2807 14.7573 30.955 14.1925 30.955 14.1925Z" fill="black"/>
<path d="M21.0693 22.4702C21.2431 22.579 21.4603 22.6442 21.6993 22.8397C21.6993 22.8397 21.5038 22.8397 21.4168 22.7527C21.3083 22.6877 21.0911 22.4922 21.0693 22.4702Z" fill="#001423"/>
<path d="M27.3482 5.24125C27.2832 5.04575 26.8049 4.698 25.6969 4.698C24.5019 4.698 24.1544 5.06725 24.1327 5.263C24.1327 5.328 24.0457 6.02325 24.0239 6.3055C24.0239 6.3055 24.0239 6.65325 24.0457 7.17475C24.0674 7.52225 24.1544 7.71775 24.1977 8.17425C24.2412 8.652 24.3717 8.95625 24.6107 9.3475C24.7192 9.4125 24.8062 9.47775 24.9149 9.4995C25.3494 9.58625 26.1099 9.608 26.5224 9.4995C26.7614 9.4345 27.0657 9.0215 27.1309 8.652C27.2177 8.196 27.3047 7.87 27.3264 7.58775C27.3699 7.30525 27.3914 6.67525 27.4132 6.50125C27.4784 6.02325 27.3699 5.2845 27.3482 5.24125Z" fill="#EFEFEF"/>
<path d="M25.067 32.0952C25.067 32.0952 26.2185 32.595 29.0648 32.1602C29.0648 32.1602 28.261 36.2015 28.6303 38.222C28.6303 38.222 28.9995 38.7435 31.7373 39.743C31.7373 39.743 32.9538 40.0472 32.9105 40.6555C32.9105 40.6555 32.9538 40.786 31.4765 40.7425C29.999 40.699 28.6085 40.4382 27.6308 40.4382C26.653 40.4382 25.6103 40.4815 25.4365 40.1992C25.241 39.9385 25.48 39.265 25.7623 38.8737C26.0668 38.4612 25.9798 38.1567 25.958 37.4182C25.8925 35.4845 24.4153 33.4857 25.067 32.0952Z" fill="black"/>
<path d="M24.8281 32.4647C24.6759 32.682 24.8496 33.5072 25.0671 34.3112C25.2844 35.1152 25.7624 35.5932 25.8709 36.9185C25.9796 38.222 26.0014 38.396 25.6319 39.1562C25.2624 39.9165 25.1539 40.612 26.4359 40.6337C27.7176 40.6555 28.4129 40.612 29.7164 40.8075C31.0201 41.003 31.4764 41.0682 32.1934 40.9597C32.9104 40.851 33.0624 40.612 32.7584 40.3947C32.4544 40.1775 31.1939 39.9385 30.6509 39.504C30.1294 39.1127 28.6519 38.461 28.6304 38.2872C28.5654 37.7005 28.5434 35.5715 28.6519 34.8762C28.7606 34.1807 28.9126 33.1812 28.9561 32.9207C28.9996 32.66 29.2169 32.3992 28.8474 32.4862C28.4779 32.5732 27.0876 32.7687 26.0449 32.7035C25.0021 32.6382 24.8934 32.3992 24.8281 32.4647Z" fill="#88CE02"/>
<path opacity="0.3" d="M25.5667 39.1782C25.936 39.352 26.4792 39.4822 26.892 39.4822C26.892 39.4822 26.7397 40.1992 26.979 40.6337C27.2177 41.0685 25.2407 40.8077 25.2407 40.8077L25.154 39.2652L25.5667 39.1782ZM31.3242 41.0465C31.6717 40.938 31.911 40.547 31.6285 40.1775C31.3242 39.8082 31.0635 39.743 31.4545 39.7215C31.8457 39.6997 33.2795 40.5687 33.2795 40.5687L32.541 41.2422L31.3242 41.0465ZM24.7627 33.312C25.2625 33.4857 26.0227 33.5292 26.6747 33.5075C27.3267 33.4857 28.3042 33.3987 28.9345 33.1815C29.5647 32.9642 29.3037 33.4205 29.3037 33.4205L28.9562 33.7465C28.9562 33.7465 28.1305 34.0722 26.7835 34.0507C25.1975 34.029 24.7192 33.8552 24.7192 33.8552L24.7627 33.312ZM24.8062 34.3982C25.3062 34.5722 26.0662 34.6157 26.7182 34.5937C27.37 34.5722 28.239 34.5722 28.869 34.333C29.1297 34.2462 28.9777 34.6155 28.9777 34.6155L28.869 34.811C28.869 34.811 28.0217 35.1152 26.6965 35.0935C25.1105 35.0717 24.828 34.9412 24.828 34.9412L24.8062 34.3982Z" fill="black"/>
<path d="M23.3726 19.168C23.3726 19.32 25.0671 20.1672 26.0013 20.3412C26.9356 20.5152 28.8911 20.3413 29.1951 20.2763L29.1516 20.5802C29.1516 20.5802 26.8268 20.9278 25.0453 20.45C23.2638 19.9723 23.4593 19.8633 23.4593 19.8633L23.3726 19.168Z" fill="black"/>
<path d="M19.7436 37.7007C20.0044 37.8312 20.9386 38.0702 21.5469 37.9397C21.6339 37.918 21.5469 36.4407 21.7861 35.7672C22.1336 34.8327 22.6986 34.0722 22.9591 32.4212C22.0466 32.3345 21.0039 32.0952 20.4606 31.9215C19.7656 34.0507 20.0044 35.8757 19.7436 37.7007ZM21.1994 39.0697C21.3516 39.113 21.4601 39.2867 21.5036 39.1782C21.5904 38.9827 21.3516 38.6132 21.3299 38.3527V38.331C21.1344 38.1572 19.8089 38.1355 19.8959 38.2222C19.7439 38.5047 19.5049 38.4612 19.4181 39.0262C19.3746 39.3087 19.7221 39.0697 20.0481 39.048C19.4614 39.439 18.7881 39.9387 18.6791 40.373C18.5489 40.9815 18.7661 41.1555 19.4181 41.4815C19.9831 41.6117 20.6564 41.6335 21.1779 41.6117C21.7644 41.503 21.8731 41.2207 21.6994 40.8295C21.4384 40.243 21.2646 39.4825 21.1994 39.0695" fill="#EFEFEF"/>
<path d="M21.4387 10.8465C22.156 11.2595 23.1552 11.1507 23.5245 11.129C23.6115 11.129 24.4807 10.977 24.524 10.9985C24.611 11.0205 24.611 11.0855 24.611 11.0855C24.611 11.0855 24.285 11.2592 23.5465 11.3027C22.8512 11.3462 22.0255 11.3027 21.5692 11.0855C21.026 10.8465 21.4387 10.8465 21.4387 10.8465ZM28.826 11.2595C28.9562 11.3462 29.8035 11.672 30.173 12.0632C30.499 12.411 30.3252 12.3892 30.26 12.3022C30.173 12.1935 29.4995 11.7372 29.2387 11.6287C28.978 11.5202 28.652 11.3245 28.652 11.2812C28.652 11.2377 28.826 11.2595 28.826 11.2595Z" fill="black"/>
<path d="M21.3298 20.276C21.9598 20.2325 22.6115 20.3847 23.0245 20.819C23.2418 21.0365 23.5895 21.2752 23.546 21.4925C23.546 21.5577 23.4155 21.7317 23.307 21.862C23.242 21.9487 23.0463 22.1445 22.981 22.2095C22.8943 22.2747 22.59 22.5137 22.5248 22.557C22.4598 22.6007 22.3728 22.7095 22.3073 22.731C22.0903 22.8397 21.8513 22.7527 21.634 22.6442C21.4168 22.5355 21.6775 22.5137 21.4385 22.34C20.852 21.9272 20.526 21.6447 20.765 20.8407C20.7868 20.6887 21.0255 20.5152 21.3298 20.276Z" fill="#EFEFEF"/>
<path opacity="0.4" d="M15.7895 15.3005C13.834 16.0825 8.85854 18.5595 7.44629 19.32C8.61954 20.0587 9.16279 21.84 9.33654 23.6435C9.35829 23.8175 9.38004 23.9695 9.40179 24.1432C9.42346 24.2952 9.44512 24.4039 9.46679 24.4692C9.46679 24.491 9.46679 24.5342 9.48854 24.556C10.7705 21.058 15.3548 17.3645 15.5285 17.082C15.6155 16.952 15.42 16.387 15.724 15.8437C16.1153 15.1482 16.8758 14.8442 15.7895 15.3005ZM20.439 31.704C21.4383 29.7052 21.46 27.7932 21.4383 25.5555C21.4383 24.621 22.1118 23.2957 21.7643 23.6652C20.4605 25.1207 17.18 27.8585 14.8118 28.0102C18.1358 27.9017 19.4393 29.5747 20.439 31.704Z" fill="black"/>
<path d="M5.53467 21.1665C6.77317 20.2757 13.1827 16.865 14.7252 16.3867C16.2677 15.887 15.7897 15.3002 15.7897 15.3002C15.7897 15.3002 9.53267 17.9945 5.79542 20.3192" fill="black"/>
<path opacity="0.4" d="M23.7848 14.8875C23.2848 14.6922 22.8941 15.2787 23.0243 15.8437C23.1546 16.4087 24.3281 17.0387 24.2628 19.1027C24.2193 20.7975 23.8501 21.4927 23.8501 21.4927L23.0243 20.4497C23.0243 20.4497 22.8941 18.1032 22.6116 17.7555C22.3291 17.408 21.4383 16.778 21.0908 16.452C20.7433 16.126 21.4818 15.6915 21.4383 15.0832C21.3948 14.4967 21.8078 13.3232 21.8078 13.3232L23.7848 14.8875ZM26.8048 24.1432C26.7613 25.7725 27.1308 28.1842 27.2828 29.3357C27.4348 30.4872 27.6303 30.5742 27.2828 31.0957C26.9353 31.5955 26.4791 32.421 26.4791 32.421L24.9798 32.2907C24.9798 32.2907 26.1748 30.7697 26.2398 30.4872C26.3048 30.205 25.6316 28.054 25.6316 28.054L26.8048 24.1432ZM23.9153 8.93449C24.2193 9.60799 24.5888 9.91199 25.1753 10.1077C25.5228 10.2382 26.8916 10.412 27.4348 9.80349C27.6738 9.52099 27.5218 8.76074 27.5218 8.76074L26.2833 9.75999L24.6103 9.45599L24.4148 8.95624L23.9153 8.93449Z" fill="black"/>
<path d="M24.0458 10.4337C24.6108 10.803 26.0228 11.1507 26.4138 11.216C26.8051 11.3027 27.4351 10.803 27.7393 10.6727C28.0653 10.5207 28.6301 10.4337 29.2818 11.0202C29.3468 11.0855 29.1298 11.368 29.1298 11.368C29.1081 11.3462 28.9776 11.3462 28.8038 11.2592C28.6301 11.1725 28.4778 11.1072 28.2173 11.129C27.1308 11.2592 26.9571 11.6287 26.0011 11.4115C25.0451 11.1942 24.8061 11.0202 23.8721 11.0637" fill="#88CE02"/>
<path d="M24.0458 10.4337C24.6108 10.803 26.0228 11.1507 26.4138 11.216C26.8051 11.3027 27.4351 10.803 27.7393 10.6727C28.0653 10.5207 28.6301 10.4337 29.2818 11.0202C29.3468 11.0855 29.1298 11.368 29.1298 11.368C29.1081 11.3462 28.9776 11.3462 28.8038 11.2592C28.6301 11.1725 28.4778 11.1072 28.2173 11.129C27.1308 11.2592 26.9571 11.6287 26.0011 11.4115C25.0451 11.1942 24.8061 11.0202 23.8721 11.0637" stroke="black" stroke-width="0.3965" stroke-linejoin="round"/>
<path d="M23.8501 10.4987C24.5674 10.803 25.9576 11.1287 26.3489 11.216C26.7399 11.3027 27.3699 10.9117 27.6741 10.716C28.2174 10.3685 28.9126 10.651 29.2386 11.0202C29.4556 11.2592 29.5426 11.4115 29.5426 11.4765C29.5426 11.5635 29.2821 11.4765 29.2821 11.4765C29.1299 11.4115 28.9561 11.3897 28.8259 11.3027C28.6519 11.216 28.4781 11.0855 28.2176 11.1072C27.1311 11.2377 26.9139 11.607 25.9796 11.3897C25.0454 11.1725 24.8064 10.9767 23.8071 11.042" fill="#88CE02"/>
<path d="M20.4826 30.7915C20.4394 30.748 20.5261 30.7047 20.4826 30.7047C20.2001 30.7047 19.8091 30.4872 19.5919 30.1832C18.6576 28.8362 17.2889 27.9455 14.8119 28.0107C11.0969 28.0975 9.61939 26.5767 9.33689 23.6652C9.18489 22.0792 8.75014 20.5367 7.85939 19.6675L7.33789 19.9935C8.33739 20.8625 8.66339 22.2747 8.88039 24.2085C9.22814 27.1197 11.5746 28.4667 14.3121 28.5102C17.1584 28.5537 18.1796 29.1402 19.2441 30.5745C19.5916 31.0305 19.9829 31.1827 20.2869 31.248L20.4826 30.7915Z" fill="black"/>
<path opacity="0.4" d="M30.5637 16.8213C30.6287 17.1473 30.8027 17.7773 31.1502 18.0813C31.3024 18.2335 31.3242 18.277 31.1937 18.277C31.0632 18.277 30.1074 18.2335 30.1074 18.2335L29.8467 17.7773L30.5637 16.8213Z" fill="black"/>
</g>
<defs>
<clipPath id="clip0_268_408">
<rect width="128" height="47" fill="white"/>
</clipPath>
</defs>
</svg>
