<svg width="52" height="52" viewBox="0 0 52 52" fill="none" xmlns="http://www.w3.org/2000/svg">
<path d="M27.6859 12.8777C27.6859 12.8777 23.4154 12.5933 16.144 14.8687C8.73316 17.1876 4.5305 20.4742 4.5305 20.4742C4.5305 20.4742 15.5756 14.3073 28.0426 13.9567L27.6859 12.8777ZM43.6134 19.5829L44.1687 19.5463C44.1687 19.5463 40.9878 15.6873 34.9001 13.8076C38.3224 15.1986 41.301 17.0422 43.6134 19.5829ZM44.5222 21.1859C44.6075 21.038 44.8829 21.6564 45.0921 21.916C45.1011 21.968 45.1157 21.9992 44.9946 21.9745C44.9841 21.9212 44.9666 21.9054 44.9666 21.9054C44.9666 21.9054 44.6741 21.7315 44.5839 21.608C44.4945 21.4841 44.4783 21.268 44.5222 21.1859ZM51.9931 39.5557C51.9931 39.5557 52.6683 31.8041 40.4893 30.017C38.6775 29.7553 36.8497 29.6196 35.0192 29.6107C25.2574 29.7399 24.9015 18.3523 32.2575 17.7775C35.3056 17.5256 38.9456 19.1705 42.5043 20.8276C42.4909 21.2696 42.5092 21.6625 42.7997 22.0252C43.0901 22.388 44.2053 22.7837 44.5612 22.988C44.917 23.1924 46.059 23.9184 46.7586 24.8288C46.9101 24.5452 48.1768 23.7205 48.1768 23.7205C48.1768 23.7205 47.8733 23.727 47.1672 23.4634C46.4612 23.1993 45.6235 22.401 45.6036 22.3551C45.5841 22.3088 45.5711 22.2365 45.7356 22.2032C45.8612 22.0975 45.5772 21.7547 45.4521 21.6295C45.3265 21.504 44.4888 20.0793 44.4689 20.046C44.449 20.0135 44.4425 19.9802 44.3832 19.9404C44.1984 19.881 43.3867 20.0265 43.3867 20.0265C43.3867 20.0265 42.1387 19.413 41.7089 18.0919C41.715 18.3235 41.4948 18.5762 41.7089 19.1075C41.0577 18.8325 40.4991 18.3629 40.0579 17.2026C39.7954 17.8628 40.0579 18.2825 40.0579 18.2825C40.0579 18.2825 38.5255 17.8543 38.2805 16.4409C38.0116 17.0755 38.2805 17.4565 38.2805 17.4565C38.2805 17.4565 35.7821 16.1533 31.6314 16.1346C28.8523 15.8795 28.2738 10.9907 28.5313 10.1676C28.5313 10.1676 24.5229 8.05511 16.6323 7.12195C8.74128 6.18839 2.27012 6.98139 2.27012 6.98139C2.27012 6.98139 16.2451 6.31067 27.4414 10.8432C27.8216 12.5454 28.9664 15.3806 29.5831 16.7432C27.8188 17.9635 25.829 19.1104 25.519 23.1794C25.209 27.2484 28.7073 30.8266 33.0452 30.9367C37.1642 31.1561 40.0099 31.1874 43.4594 32.9761C46.7521 34.7961 49.4516 40.3439 49.7189 45.333C50.0073 41.6313 48.618 33.6708 42.1358 31.254C51.196 32.8392 51.9931 39.5561 51.9931 39.5561V39.5557ZM27.4723 12.2695L27.1464 11.2182C27.1464 11.2182 21.7673 10.2631 14.5348 10.777C7.30234 11.2913 0 13.8226 0 13.8226C0 13.8226 14.9419 10.0632 27.4723 12.2695Z" fill="#2777FF"/>
</svg>
