<svg width="57" height="57" viewBox="0 0 57 57" fill="none" xmlns="http://www.w3.org/2000/svg">
<path d="M56.9341 16.245C56.9198 16.1916 56.8931 16.1453 56.8735 16.0936C56.84 15.9976 56.7983 15.9046 56.7488 15.8157C56.6607 15.6878 56.5643 15.5659 56.4603 15.4506C56.4105 15.4049 56.3582 15.3621 56.3035 15.3223C56.2565 15.2793 56.2071 15.2389 56.1557 15.2012L56.0773 15.1656L56.015 15.1228L45.3275 9.77906C45.0802 9.65552 44.8076 9.5912 44.5312 9.5912C44.2549 9.5912 43.9823 9.65552 43.735 9.77906L33.0475 15.1228L32.9852 15.1656L32.9068 15.2012C32.8554 15.2389 32.806 15.2793 32.759 15.3223C32.6271 15.4133 32.514 15.5288 32.4259 15.6625C32.3852 15.7115 32.3471 15.7627 32.3119 15.8157C32.2631 15.9047 32.2219 15.9976 32.189 16.0936C32.1712 16.1453 32.1427 16.1916 32.1284 16.245C32.0854 16.3987 32.0632 16.5574 32.0625 16.717V26.3037L24.9375 29.8662V9.59203C24.9368 9.43245 24.9146 9.27368 24.8716 9.12C24.8573 9.06656 24.8306 9.02025 24.811 8.96859C24.7775 8.87258 24.7358 8.77962 24.6863 8.69072C24.6517 8.6377 24.6142 8.58656 24.5741 8.53753C24.486 8.40378 24.3729 8.28827 24.241 8.19731C24.194 8.15432 24.1446 8.11389 24.0932 8.07619L24.0148 8.04056L23.9525 7.99781L13.265 2.65406C13.0177 2.53052 12.7451 2.4662 12.4688 2.4662C12.1924 2.4662 11.9198 2.53052 11.6725 2.65406L0.985031 7.99781L0.922688 8.04056L0.844313 8.07619C0.792899 8.11389 0.743547 8.15432 0.696469 8.19731C0.641829 8.23706 0.589494 8.27987 0.539719 8.32556C0.474934 8.39149 0.415379 8.46236 0.361594 8.53753C0.32149 8.58656 0.284031 8.6377 0.249375 8.69072C0.200567 8.77968 0.159448 8.87264 0.126469 8.96859C0.108656 9.02025 0.0801563 9.06656 0.0659063 9.12C0.0228914 9.27368 0.000724237 9.43245 0 9.59203L0 43.4358C0.000176608 43.7665 0.0924167 44.0906 0.26639 44.3719C0.440363 44.6531 0.6892 44.8804 0.985031 45.0282L11.6725 50.372L22.36 55.7157C22.385 55.7282 22.4135 55.7246 22.442 55.7353C22.6639 55.8458 22.9084 55.9032 23.1562 55.9032C23.4041 55.9032 23.6486 55.8458 23.8705 55.7353C23.8973 55.7246 23.9275 55.7282 23.9525 55.7175L45.3275 45.03C45.6236 44.882 45.8726 44.6545 46.0466 44.3729C46.2206 44.0913 46.3127 43.7668 46.3125 43.4358V33.8491L56.015 28.997C56.3108 28.8491 56.5596 28.6219 56.7336 28.3406C56.9076 28.0594 56.9998 27.7352 57 27.4045V16.717C56.9993 16.5574 56.9771 16.3987 56.9341 16.245ZM16.4516 38.092L23.9525 34.3407H23.9542L33.8438 29.396L40.5484 32.7483L23.1562 41.4443L16.4516 38.092ZM42.75 23.1616V29.8662L35.625 26.3037V19.5991L42.75 23.1616ZM44.5312 13.3647L51.2359 16.717L44.5312 20.0693L37.8266 16.717L44.5312 13.3647ZM14.25 35.21V16.0366L21.375 12.4741V31.6475L14.25 35.21ZM12.4688 6.23972L19.1734 9.59203L12.4688 12.9443L5.76413 9.59203L12.4688 6.23972ZM3.5625 12.4741L10.6875 16.0366V45.8975L3.5625 42.335V12.4741ZM14.25 40.9741L21.375 44.5366V51.2412L14.25 47.6787V40.9741ZM42.75 42.335L24.9375 51.2412V44.5366L42.75 35.6303V42.335ZM53.4375 26.3037L46.3125 29.8662V23.1616L53.4375 19.5991V26.3037Z" fill="#FF5252"/>
</svg>
