<svg width="58" height="58" viewBox="0 0 58 58" fill="none" xmlns="http://www.w3.org/2000/svg">
<path d="M49.1938 37.8572C48.3161 39.1831 47.6505 40.8148 45.8679 40.8148C42.8664 40.8148 42.7051 36.1915 39.7013 36.1915C36.6994 36.1915 36.8625 40.8148 33.8619 40.8148C30.8599 40.8148 30.6991 36.1915 27.6953 36.1915C24.6934 36.1915 24.856 40.8148 21.8559 40.8148C18.8539 40.8148 18.6931 36.1915 15.6911 36.1915C12.6874 36.1915 12.85 40.8148 9.85034 40.8148C8.90648 40.8148 8.24447 40.358 7.68531 39.7318C5.53841 35.9985 4.30273 31.6231 4.30273 26.9446C4.30273 13.2503 14.8909 2.14871 27.9518 2.14871C41.0127 2.14871 51.6013 13.2503 51.6013 26.9451C51.6013 30.8601 50.7358 34.5648 49.1938 37.8572" fill="#FB70A9"/>
<path fill-rule="evenodd" clip-rule="evenodd" d="M18.5076 35.4094V45.6809C18.5076 47.5233 17.0118 49.0172 15.1676 49.0172C14.7292 49.0176 14.295 48.9316 13.8898 48.764C13.4846 48.5965 13.1164 48.3508 12.8062 48.0409C12.496 47.731 12.25 47.3631 12.0821 46.958C11.9142 46.553 11.8277 46.1189 11.8276 45.6804V33.282C12.4507 32.1388 13.1621 31.1492 14.4467 31.1492C16.5356 31.1492 17.2665 33.7728 18.5076 35.4099V35.4094ZM31.124 35.9455V52.1873C31.1238 52.6744 31.0278 53.1566 30.8413 53.6065C30.6548 54.0565 30.3815 54.4653 30.037 54.8096C29.6926 55.1539 29.2836 55.427 28.8336 55.6133C28.3836 55.7995 27.9013 55.8953 27.4142 55.8952C25.3647 55.8952 23.7027 54.235 23.7027 52.1873V33.804C24.4019 32.4569 25.1219 31.1487 26.5982 31.1487C28.9363 31.1487 29.572 34.4302 31.1244 35.9455H31.124ZM43.0008 35.6464V47.4381C43.0008 49.281 41.5055 50.7749 39.6613 50.7749C37.8171 50.7749 36.3209 49.281 36.3209 47.4381V32.9454C36.9013 31.9507 37.5937 31.1487 38.7514 31.1487C40.9445 31.1487 41.6401 34.0397 43.0008 35.6464Z" fill="#4E56A6"/>
<path fill-rule="evenodd" clip-rule="evenodd" d="M18.5076 38.5582C17.9145 37.8323 17.2135 37.294 16.1994 37.294C13.7906 37.294 13.3479 40.3281 11.8276 41.6947V28.6126C11.8277 28.1742 11.9141 27.7401 12.082 27.3351C12.2499 26.9301 12.4959 26.5621 12.8061 26.2523C13.1162 25.9424 13.4843 25.6967 13.8895 25.5291C14.2946 25.3615 14.7288 25.2755 15.1672 25.2758C17.0118 25.2758 18.5076 26.7697 18.5076 28.6126V38.5582ZM31.124 38.7916C30.4923 37.951 29.7542 37.2944 28.6336 37.2944C25.9538 37.2944 25.7078 41.0486 23.7027 42.0876V36.3012C23.7027 34.2531 25.3647 32.5933 27.4142 32.5933C27.9013 32.5931 28.3837 32.6889 28.8337 32.8751C29.2838 33.0614 29.6928 33.3344 30.0373 33.6788C30.3819 34.0231 30.6552 34.4319 30.8417 34.8819C31.0282 35.3318 31.1243 35.8141 31.1244 36.3012L31.124 38.7916ZM43.0008 38.1422C42.4861 37.6361 41.8771 37.2944 41.0682 37.2944C38.4718 37.2944 38.1601 40.8184 36.3209 41.9811V30.2388C36.3209 29.353 36.6727 28.5035 37.2991 27.8771C37.9255 27.2507 38.775 26.8989 39.6608 26.8989C40.5467 26.8989 41.3962 27.2507 42.0226 27.8771C42.6489 28.5035 43.0008 29.353 43.0008 30.2388V38.1422Z" fill="black" fill-opacity="0.298"/>
<path d="M49.1938 37.8572C48.3161 39.1831 47.6505 40.8148 45.8679 40.8148C42.8664 40.8148 42.7051 36.1915 39.7013 36.1915C36.6994 36.1915 36.8625 40.8148 33.8619 40.8148C30.8599 40.8148 30.6991 36.1915 27.6953 36.1915C24.6934 36.1915 24.856 40.8148 21.8559 40.8148C18.8539 40.8148 18.6931 36.1915 15.6911 36.1915C12.6874 36.1915 12.85 40.8148 9.85034 40.8148C8.90648 40.8148 8.24447 40.358 7.68531 39.7318C5.53841 35.9985 4.30273 31.6231 4.30273 26.9446C4.30273 13.2503 14.8909 2.14871 27.9518 2.14871C41.0127 2.14871 51.6013 13.2503 51.6013 26.9451C51.6013 30.8601 50.7358 34.5648 49.1938 37.8572" fill="#FB70A9"/>
<path fill-rule="evenodd" clip-rule="evenodd" d="M44.0767 40.3209C50.2736 31.1079 50.4331 20.8913 44.5565 9.66606C48.9124 14.1266 51.6013 20.2456 51.6013 26.9981C51.6013 30.8995 50.7041 34.5879 49.1054 37.8695C48.1974 39.1881 47.5055 40.8148 45.6572 40.8148C45.0916 40.82 44.5386 40.6472 44.0767 40.3209Z" fill="#E24CA6"/>
<path fill-rule="evenodd" clip-rule="evenodd" d="M26.6846 33.1311C34.9088 33.1311 38.3707 28.3643 38.3707 21.5946C38.3707 14.824 33.1384 8.59352 26.6846 8.59352C20.2298 8.59352 14.9976 14.824 14.9976 21.5941C14.9976 28.3647 18.459 33.1311 26.6846 33.1311Z" fill="white"/>
<path fill-rule="evenodd" clip-rule="evenodd" d="M27.9239 17.1444C27.9239 19.8133 25.961 21.9784 23.5413 21.9784C21.1198 21.9784 19.1587 19.8138 19.1587 17.1444C19.1587 14.4751 21.1198 12.3105 23.5413 12.3105C25.961 12.3105 27.9239 14.4751 27.9239 17.1444Z" fill="#030776"/>
<path fill-rule="evenodd" clip-rule="evenodd" d="M25.0018 16.0293C25.0018 17.2613 24.0212 18.2596 22.8105 18.2596C21.5997 18.2596 20.6191 17.2613 20.6191 16.0293C20.6191 14.7972 21.5997 13.799 22.8105 13.799C24.0212 13.799 25.0018 14.7972 25.0018 16.0293Z" fill="white"/>
</svg>
