<svg width="56" height="56" viewBox="0 0 56 56" fill="none" xmlns="http://www.w3.org/2000/svg">
<g clip-path="url(#clip0_268_393)">
<path d="M28 56C43.464 56 56 43.464 56 28C56 12.536 43.464 0 28 0C12.536 0 0 12.536 0 28C0 43.464 12.536 56 28 56Z" fill="black"/>
<path d="M46.5135 49.0061L21.5104 16.8H16.7998V39.1908H20.5684V21.5858L43.5547 51.2851C44.5906 50.5921 45.579 49.8308 46.5135 49.0061Z" fill="url(#paint0_linear_268_393)"/>
<path d="M35.7778 16.8H39.511V39.2H35.7778V16.8Z" fill="url(#paint1_linear_268_393)"/>
</g>
<defs>
<linearGradient id="paint0_linear_268_393" x1="33.9109" y1="36.2444" x2="44.9553" y2="49.9333" gradientUnits="userSpaceOnUse">
<stop stop-color="white"/>
<stop offset="1" stop-color="white" stop-opacity="0"/>
</linearGradient>
<linearGradient id="paint1_linear_268_393" x1="37.6443" y1="16.8" x2="37.5818" y2="33.2499" gradientUnits="userSpaceOnUse">
<stop stop-color="white"/>
<stop offset="1" stop-color="white" stop-opacity="0"/>
</linearGradient>
<clipPath id="clip0_268_393">
<rect width="56" height="56" fill="white"/>
</clipPath>
</defs>
</svg>
