<svg width="62" height="62" viewBox="0 0 62 62" fill="none" xmlns="http://www.w3.org/2000/svg">
<path d="M31 38.7558V42.6308H38.75C39.7777 42.6308 40.7633 42.2225 41.49 41.4958C42.2167 40.7691 42.625 39.7835 42.625 38.7558V34.8808C42.625 33.8531 42.2167 32.8675 41.49 32.1408C40.7633 31.4141 39.7777 31.0058 38.75 31.0058H34.875V27.1308H42.625V23.2558H34.875C33.8473 23.2558 32.8617 23.6641 32.135 24.3908C31.4083 25.1175 31 26.1031 31 27.1308V31.0058C31 32.0335 31.4083 33.0191 32.135 33.7458C32.8617 34.4725 33.8473 34.8808 34.875 34.8808H38.75V38.7558H31Z" fill="#8BC34A"/>
<path d="M31 5.8183L7.75 19.3808V46.5058L15.5 50.3808H27.125V24.2245C27.125 23.9676 27.0229 23.7212 26.8413 23.5395C26.6596 23.3579 26.4132 23.2558 26.1562 23.2558H24.2188C23.9618 23.2558 23.7154 23.3579 23.5337 23.5395C23.3521 23.7212 23.25 23.9676 23.25 24.2245V46.5058H15.5L11.625 44.5024V21.6031L31 10.3017L50.375 21.6031V44.2777L31 55.5791L27.6191 53.599L25.1875 56.6777L31 60.0683L54.25 46.5058V19.3808L31 5.8183Z" fill="#8BC34A"/>
</svg>
