<svg width="63" height="63" viewBox="0 0 63 63" fill="none" xmlns="http://www.w3.org/2000/svg">
<path d="M59.5941 45.2813L45.9506 21.6563C45.6085 21.0556 45.1127 20.5567 44.5142 20.2107C43.9157 19.8647 43.236 19.6842 42.5447 19.6875C41.8526 19.68 41.1712 19.8589 40.572 20.2052C39.9728 20.5516 39.4777 21.0528 39.1388 21.6563L34.6697 29.3934L27.0309 16.1831C26.6864 15.5844 26.1902 15.0871 25.5922 14.7413C24.9943 14.3956 24.3157 14.2135 23.625 14.2135C22.9343 14.2135 22.2557 14.3956 21.6578 14.7413C21.0598 15.0871 20.5636 15.5844 20.2191 16.1831L3.40594 45.2813C3.06053 45.8795 2.8786 46.5582 2.87842 47.249C2.87824 47.9398 3.05982 48.6185 3.40493 49.217C3.75004 49.8155 4.24653 50.3126 4.84455 50.6585C5.44256 51.0043 6.12105 51.1868 6.81188 51.1875H24.3633C26.4373 51.1876 28.4748 50.6416 30.2708 49.6045C32.0669 48.5674 33.5582 47.0756 34.5949 45.2793L42.5447 31.5L49.3566 43.3125H44.8088L40.2609 51.1875H56.1881C56.879 51.1868 57.5575 51.0043 58.1555 50.6585C58.7535 50.3126 59.25 49.8155 59.5951 49.217C59.9402 48.6185 60.1218 47.9398 60.1216 47.249C60.1214 46.5582 59.9395 45.8795 59.5941 45.2813ZM24.3613 43.3125H13.6434L23.625 26.0269L30.1219 37.2684L27.7732 41.3418C27.4277 41.941 26.9304 42.4386 26.3315 42.7846C25.7325 43.1306 25.053 43.3126 24.3613 43.3125Z" fill="#00E676"/>
</svg>
