<svg width="84" height="84" viewBox="0 0 84 84" fill="none" xmlns="http://www.w3.org/2000/svg">
<path d="M0 42C0 54.2017 18.8042 64.094 42 64.094C65.1958 64.094 84 54.2017 84 42C84 29.7983 65.1952 19.906 42 19.906C18.8048 19.906 0 29.7983 0 42Z" fill="url(#paint0_radial_268_468)"/>
<path d="M42 62.4533C64.2895 62.4533 82.3594 53.2954 82.3594 42C82.3594 30.7033 64.2895 21.5467 42 21.5467C19.7105 21.5467 1.64062 30.7033 1.64062 42C1.64062 53.2954 19.7105 62.4533 42 62.4533Z" fill="#777BB3"/>
<path d="M22.8191 44.5358C24.652 44.5358 26.0196 44.1978 26.8852 43.5317C27.7423 42.8715 28.3336 41.729 28.644 40.1356C28.9327 38.6459 28.8225 37.6064 28.3159 37.0447C27.7987 36.4711 26.6798 36.1804 24.9906 36.1804H22.0611L20.4382 44.5358H22.8191ZM13.2385 54.8277C13.1713 54.8276 13.1049 54.8127 13.0442 54.7839C12.9835 54.7551 12.9298 54.7133 12.8872 54.6613C12.8445 54.6094 12.8139 54.5487 12.7975 54.4835C12.7811 54.4183 12.7793 54.3503 12.7923 54.2844L17.0953 32.1438C17.1156 32.0403 17.1712 31.947 17.2526 31.8799C17.3339 31.8128 17.4361 31.7759 17.5415 31.7756H26.817C29.732 31.7756 31.9016 32.5671 33.266 34.1283C34.6362 35.6967 35.0601 37.8912 34.524 40.6481C34.3055 41.771 33.9301 42.8138 33.4084 43.7483C32.8654 44.7096 32.1724 45.578 31.3556 46.3208C30.3509 47.2605 29.2136 47.943 27.9779 48.344C26.7625 48.7404 25.2006 48.9412 23.3382 48.9412H19.5818L18.5095 54.4589C18.4893 54.5628 18.4335 54.6563 18.3519 54.7236C18.2702 54.7909 18.1677 54.8277 18.0619 54.8277H13.2385Z" fill="black"/>
<path d="M22.4372 36.6358H24.9907C27.0297 36.6358 27.7378 37.0834 27.9786 37.3505C28.377 37.7928 28.4531 38.7266 28.1958 40.049C27.9077 41.5301 27.3736 42.5808 26.6077 43.1701C25.8241 43.7738 24.5484 44.0796 22.8192 44.0796H20.9909L22.4372 36.6358ZM26.8171 31.3202H17.5423C17.3308 31.3202 17.1258 31.3937 16.9626 31.5281C16.7993 31.6626 16.6878 31.8496 16.6471 32.0571L12.3441 54.1984C12.3187 54.3302 12.3227 54.4661 12.3559 54.5963C12.3891 54.7264 12.4506 54.8476 12.536 54.9513C12.6215 55.0549 12.7288 55.1384 12.8502 55.1957C12.9717 55.2531 13.1043 55.283 13.2386 55.2831H18.062C18.2735 55.2829 18.4784 55.2093 18.6415 55.0747C18.8047 54.9402 18.916 54.7531 18.9565 54.5455L19.9573 49.3966H23.3376C25.2486 49.3966 26.8577 49.1879 28.1197 48.7771C29.4171 48.3558 30.6108 47.6411 31.6674 46.6528C32.5183 45.8781 33.2403 44.9727 33.8061 43.9707C34.3515 42.9949 34.7439 41.9055 34.971 40.7347C35.5353 37.8321 35.0766 35.5084 33.6086 33.8284C32.1543 32.1635 29.8693 31.3195 26.8171 31.3195V31.3202ZM19.8851 44.9905H22.8192C24.7639 44.991 26.212 44.6246 27.1636 43.8913C28.1151 43.1589 28.7578 41.9359 29.0916 40.2222C29.4101 38.5763 29.2646 37.4152 28.6552 36.7388C28.0449 36.0625 26.8234 35.7243 24.9907 35.7243H21.6858L19.8851 44.9905ZM26.8177 32.2297C29.6081 32.2297 31.6431 32.9621 32.9228 34.4269C34.2025 35.8916 34.5875 37.9361 34.0778 40.5602C33.8669 41.6417 33.5115 42.63 33.0114 43.5251C32.5105 44.4211 31.8562 45.2408 31.0486 45.9841C30.0861 46.8853 29.0159 47.5274 27.8382 47.9102C26.6609 48.2934 25.1609 48.4848 23.3383 48.4844H19.2065L18.0627 54.371H13.2392L17.5429 32.2297H26.8177Z" fill="white"/>
<path d="M45.5824 48.9412C45.5151 48.9412 45.4487 48.9264 45.3878 48.8978C45.327 48.8691 45.2732 48.8274 45.2304 48.7755C45.1876 48.7236 45.1569 48.6629 45.1403 48.5977C45.1238 48.5325 45.1219 48.4645 45.1348 48.3984L47.0379 38.6019C47.2197 37.6701 47.1751 37.002 46.9132 36.7185C46.7524 36.5459 46.2708 36.2565 44.846 36.2565H41.3968L39.0041 48.573C38.9836 48.6767 38.9276 48.7701 38.8459 48.8371C38.7641 48.9041 38.6616 48.9407 38.5559 48.9405H33.7718C33.7046 48.9405 33.6382 48.9257 33.5774 48.8971C33.5166 48.8685 33.4629 48.8268 33.42 48.7751C33.3772 48.7233 33.3464 48.6626 33.3297 48.5975C33.313 48.5324 33.3109 48.4644 33.3236 48.3984L37.6273 26.2572C37.6477 26.1535 37.7034 26.0601 37.7851 25.9929C37.8667 25.9258 37.9691 25.8891 38.0749 25.8891H42.8589C42.9261 25.889 42.9925 25.9038 43.0533 25.9324C43.1141 25.961 43.1679 26.0027 43.2107 26.0545C43.2535 26.1063 43.2844 26.1669 43.3011 26.232C43.3177 26.2971 43.3198 26.3651 43.3071 26.4311L42.269 31.7756H45.9787C48.8052 31.7756 50.7214 32.2731 51.8377 33.2988C52.975 34.3442 53.3307 36.0157 52.893 38.2686L50.8908 48.573C50.8702 48.6766 50.8144 48.7699 50.7328 48.8369C50.6512 48.9039 50.5488 48.9405 50.4432 48.9405L45.5824 48.9412Z" fill="black"/>
<path d="M42.8598 25.433H38.0751C37.8635 25.433 37.6585 25.5066 37.4952 25.6412C37.3319 25.7758 37.2205 25.9629 37.18 26.1706L32.877 48.3112C32.8514 48.4431 32.8554 48.579 32.8885 48.7093C32.9216 48.8395 32.9831 48.9608 33.0686 49.0645C33.154 49.1682 33.2614 49.2518 33.3829 49.3092C33.5044 49.3666 33.637 49.3964 33.7714 49.3966H38.5561C38.7677 49.3966 38.9727 49.323 39.136 49.1884C39.2993 49.0538 39.4108 48.8667 39.4513 48.659L41.7724 36.712H44.845C46.2677 36.712 46.567 37.0158 46.5781 37.0296C46.6648 37.1215 46.7783 37.5513 46.5906 38.5153L44.6875 48.3112C44.662 48.4432 44.6659 48.5792 44.6991 48.7094C44.7322 48.8397 44.7938 48.9611 44.8793 49.0648C44.9649 49.1685 45.0723 49.252 45.1938 49.3094C45.3154 49.3668 45.4482 49.3965 45.5826 49.3966H50.4441C50.6556 49.3964 50.8604 49.3227 51.0236 49.1882C51.1868 49.0536 51.2981 48.8666 51.3386 48.659L53.3408 38.3559C53.81 35.9369 53.4084 34.123 52.1464 32.9635C50.9415 31.857 48.9242 31.3195 45.979 31.3195H42.8224L43.755 26.5191C43.7806 26.387 43.7767 26.251 43.7436 26.1206C43.7105 25.9902 43.649 25.8688 43.5634 25.765C43.4779 25.6612 43.3704 25.5776 43.2488 25.5202C43.1272 25.4628 42.9943 25.433 42.8598 25.433ZM42.8598 26.3452L41.716 32.2304H45.979C48.6613 32.2304 50.5113 32.6985 51.5289 33.6348C52.5474 34.5702 52.8532 36.0861 52.4463 38.1826L50.4435 48.4851H45.5826L47.4864 38.6886C47.703 37.5743 47.6231 36.8143 47.2469 36.4088C46.8706 36.0036 46.0704 35.8011 44.8463 35.8011H41.021L38.5561 48.4844H33.7708L38.0745 26.3432H42.8598V26.3452Z" fill="white"/>
<path d="M60.4644 44.5358C62.2974 44.5358 63.6656 44.1978 64.5319 43.5317C65.3876 42.8715 65.9796 41.729 66.29 40.1356C66.5787 38.6459 66.4691 37.6064 65.9619 37.0447C65.4447 36.4711 64.3258 36.1804 62.6366 36.1804H59.7078L58.0836 44.5358H60.4644ZM50.8858 54.8277C50.8185 54.8278 50.752 54.813 50.6911 54.7843C50.6302 54.7556 50.5764 54.7138 50.5336 54.6618C50.4908 54.6099 50.46 54.5491 50.4435 54.4838C50.4271 54.4185 50.4253 54.3504 50.4383 54.2844L54.7413 32.1438C54.7617 32.0401 54.8174 31.9466 54.8991 31.8795C54.9807 31.8123 55.0831 31.7756 55.1889 31.7756H64.4636C67.3787 31.7756 69.5483 32.5671 70.9119 34.1283C72.2829 35.6967 72.7061 37.8912 72.17 40.6481C71.9648 41.734 71.5885 42.7805 71.055 43.7483C70.5121 44.7096 69.8191 45.578 69.0023 46.3208C67.9982 47.2605 66.8596 47.943 65.6245 48.344C64.4092 48.7404 62.8473 48.9412 60.9842 48.9412H57.2285L56.1568 54.4589C56.1365 54.5629 56.0807 54.6565 55.999 54.7238C55.9172 54.7911 55.8145 54.8279 55.7086 54.8277H50.8858Z" fill="black"/>
<path d="M60.0827 36.6358H62.6362C64.6752 36.6358 65.3833 37.0834 65.6235 37.3505C66.0238 37.7928 66.0986 38.7266 65.842 40.049C65.5532 41.5301 65.0191 42.5808 64.2532 43.1701C63.469 43.7738 62.1932 44.0796 60.4647 44.0796H58.6364L60.0827 36.6358ZM64.4626 31.3202H55.1878C54.9764 31.3203 54.7716 31.3939 54.6085 31.5284C54.4453 31.6628 54.3339 31.8497 54.2933 32.0571L49.9896 54.1984C49.9642 54.3303 49.9682 54.4662 50.0014 54.5964C50.0347 54.7266 50.0962 54.8479 50.1818 54.9515C50.2673 55.0552 50.3746 55.1386 50.4962 55.196C50.6177 55.2533 50.7504 55.2831 50.8847 55.2831H55.7082C55.9197 55.2829 56.1245 55.2093 56.2877 55.0747C56.4508 54.9402 56.5622 54.7531 56.6027 54.5455L57.6034 49.3966H60.9831C62.8935 49.3966 64.5032 49.1879 65.7646 48.7771C67.0626 48.3558 68.2563 47.6411 69.3136 46.6521C70.1642 45.8776 70.8859 44.9724 71.4516 43.9707C71.9976 42.9949 72.3887 41.9055 72.6165 40.7347C73.1808 37.8321 72.7228 35.5084 71.2541 33.8284C69.7998 32.1635 67.5154 31.3195 64.4619 31.3195L64.4626 31.3202ZM57.5306 44.9905H60.464C62.4087 44.991 63.8573 44.6246 64.8097 43.8913C65.7613 43.1589 66.4035 41.9359 66.7365 40.2222C67.0563 38.5763 66.9108 37.4152 66.3001 36.7388C65.6893 36.0625 64.468 35.7243 62.6362 35.7243H59.332L57.5306 44.9905ZM64.4626 32.2297C67.2529 32.2297 69.288 32.9621 70.5677 34.4269C71.8473 35.8916 72.2321 37.9361 71.722 40.5602C71.512 41.6417 71.1567 42.63 70.6562 43.5251C70.1557 44.4211 69.5012 45.2408 68.6927 45.9841C67.7302 46.8853 66.6601 47.5274 65.4824 47.9102C64.3055 48.2934 62.8057 48.4848 60.9831 48.4844H56.852L55.7069 54.371H50.8834L55.1871 32.2297H64.4626Z" fill="white"/>
<defs>
<radialGradient id="paint0_radial_268_468" cx="0" cy="0" r="1" gradientUnits="userSpaceOnUse" gradientTransform="translate(25.2171 27.6734) scale(55.1521 55.1521)">
<stop stop-color="#AEB2D5"/>
<stop offset="0.3" stop-color="#AEB2D5"/>
<stop offset="0.75" stop-color="#484C89"/>
<stop offset="1" stop-color="#484C89"/>
</radialGradient>
</defs>
</svg>
