<svg width="46" height="46" viewBox="0 0 46 46" fill="none" xmlns="http://www.w3.org/2000/svg">
<path d="M12.3079 21.9305C15.741 23.1359 19.3622 23.7167 23 23.6454C26.638 23.7162 30.2592 23.1349 33.6922 21.9291C36.3717 20.884 37.3218 19.7225 37.3218 19.0541V13.9438C36.3848 14.5706 35.3798 15.0895 34.3261 15.4905C30.6941 16.7908 26.8573 17.4248 23 17.3621C19.1432 17.4226 15.3069 16.7897 11.674 15.4934C10.6196 15.0926 9.61452 14.5727 8.67822 13.9438V19.0469C8.67822 19.7283 9.63129 20.884 12.3079 21.9305ZM12.3079 31.5689C13.5206 32.0315 14.7711 32.3879 16.0454 32.6341C18.337 33.0765 20.6662 33.2946 23 33.2853C25.3338 33.2951 27.663 33.0775 29.9547 32.6356C31.229 32.3893 32.4795 32.0329 33.6922 31.5704C36.3717 30.5253 37.3218 29.3638 37.3218 28.6954V23.8223C36.5475 24.2883 35.7336 24.6851 34.8896 25.0082C31.0741 26.3588 27.0469 27.0127 23 26.9388C18.9528 27.0104 14.9256 26.3541 11.1105 25.001C10.2673 24.6759 9.4536 24.2792 8.67822 23.8151V28.6925C8.67822 29.3624 9.63129 30.5196 12.3079 31.5689ZM23 43.125C30.9063 43.125 37.3218 40.618 37.3218 37.5274V33.4492C36.6174 33.8738 35.8794 34.2402 35.1153 34.5446L34.8896 34.6351C31.0748 35.9896 27.0476 36.6475 23 36.5772C18.9523 36.6506 14.9245 35.9927 11.1105 34.6351L10.8848 34.5446C10.1206 34.2402 9.38267 33.8738 8.67822 33.4492V37.5274C8.67822 40.618 15.0938 43.125 23 43.125Z" fill="#FFDA44"/>
<path d="M23 14.0703C30.9098 14.0703 37.3218 11.5641 37.3218 8.47263C37.3218 5.38114 30.9098 2.875 23 2.875C15.0903 2.875 8.67822 5.38114 8.67822 8.47263C8.67822 11.5641 15.0903 14.0703 23 14.0703Z" fill="#FFDA44"/>
</svg>
