<svg width="44" height="43" viewBox="0 0 44 43" fill="none" xmlns="http://www.w3.org/2000/svg">
<g clip-path="url(#clip0_268_406)">
<path d="M22.0015 8.60067C16.268 8.60067 12.6859 11.4662 11.2515 17.1997C13.4008 14.3338 15.9099 13.2591 18.7758 13.9757C20.4121 14.3835 21.5815 15.57 22.8766 16.8849C24.9843 19.0238 27.4238 21.5 32.7515 21.5C38.4846 21.5 42.067 18.6341 43.5015 12.8993C41.3515 15.7667 38.8432 16.8419 35.9768 16.125C34.3408 15.7168 33.1727 14.5306 31.876 13.2158C29.7697 11.0769 27.3308 8.60067 22.0015 8.60067ZM11.2515 21.5C5.51836 21.5 1.93592 24.3659 0.501465 30.1007C2.65124 27.2333 5.15935 26.1581 8.02579 26.875C9.66214 27.2832 10.8315 28.4694 12.1266 29.7842C14.2343 31.9231 16.6738 34.3993 22.0015 34.3993C27.7346 34.3993 31.317 31.5338 32.7515 25.8003C30.6015 28.6663 28.0932 29.741 25.2268 29.0243C23.5908 28.6165 22.4227 27.43 21.126 26.1151C19.0197 23.9762 16.5808 21.5 11.2515 21.5Z" fill="#38BDF8"/>
</g>
<defs>
<clipPath id="clip0_268_406">
<rect width="43" height="43" fill="white" transform="translate(0.5)"/>
</clipPath>
</defs>
</svg>
