<svg width="46" height="46" viewBox="0 0 46 46" fill="none" xmlns="http://www.w3.org/2000/svg">
<g clip-path="url(#clip0_268_402)">
<path d="M35.2188 0H10.7812C4.82693 0 0 4.82693 0 10.7812V35.2188C0 41.1731 4.82693 46 10.7812 46H35.2188C41.1731 46 46 41.1731 46 35.2188V10.7812C46 4.82693 41.1731 0 35.2188 0Z" fill="#007ACC"/>
<path d="M10.1723 23.1526L10.1577 25.0364H16.1449V42.049H20.38V25.0364H26.3671V23.189C26.3671 22.1668 26.3454 21.3126 26.3161 21.2906C26.2942 21.2615 22.6507 21.2468 18.2332 21.2542L10.1942 21.2761L10.1723 23.1526ZM37.1175 21.2225C38.2856 21.5147 39.1765 22.0331 39.9943 22.88C40.4178 23.3328 41.0456 24.1579 41.0968 24.355C41.1114 24.4134 39.1108 25.7569 37.8988 26.5089C37.8549 26.5382 37.6796 26.3483 37.4824 26.0563C36.8911 25.1947 36.2704 24.8222 35.3212 24.7566C33.9266 24.6616 33.0285 25.3918 33.0359 26.6112C33.0359 26.9689 33.0869 27.1806 33.233 27.4728C33.5396 28.108 34.1092 28.4877 35.8981 29.2616C39.1911 30.6782 40.6002 31.6128 41.4765 32.9416C42.4549 34.4238 42.674 36.7896 42.0095 38.5493C41.2794 40.4622 39.4685 41.7619 36.9202 42.1928C36.1317 42.3315 34.2624 42.3096 33.4156 42.1563C31.5682 41.8277 29.8159 40.915 28.7352 39.7176C28.3117 39.2502 27.4866 38.0309 27.5378 37.9432C27.5596 37.9141 27.7495 37.7973 27.9612 37.6731C28.1656 37.5563 28.9397 37.1109 29.6698 36.6873L30.9914 35.9206L31.2688 36.3296C31.6559 36.9209 32.5028 37.7315 33.014 38.0016C34.4815 38.7757 36.4969 38.6661 37.4898 37.7753C37.9133 37.3883 38.0885 36.9867 38.0885 36.3953C38.0885 35.8622 38.0228 35.6286 37.7453 35.227C37.3876 34.716 36.6575 34.2851 34.5837 33.387C32.2108 32.3648 31.1885 31.7296 30.254 30.7219C29.7136 30.1379 29.2024 29.2032 28.9908 28.4219C28.8156 27.7721 28.7717 26.1438 28.9104 25.4867C29.3996 23.1941 31.1301 21.595 33.6272 21.1203C34.4378 20.967 36.3215 21.0254 37.1175 21.2225Z" fill="white"/>
</g>
<defs>
<clipPath id="clip0_268_402">
<rect width="46" height="46" fill="white"/>
</clipPath>
</defs>
</svg>
