<svg width="58" height="58" viewBox="0 0 58 58" fill="none" xmlns="http://www.w3.org/2000/svg">
<g clip-path="url(#clip0_268_1234)">
<path d="M57.9176 28.9282C57.9176 44.904 44.9662 57.8557 28.9894 57.8557C13.0123 57.8557 0.0610352 44.904 0.0610352 28.9282C0.0610352 12.9514 13.0127 0 28.9894 0C44.9664 0 57.9176 12.9514 57.9176 28.9282Z" fill="#DD4814"/>
<path d="M9.31943 25.0653C7.18544 25.0653 5.45654 26.7942 5.45654 28.9282C5.45654 31.061 7.18544 32.7902 9.31943 32.7902C11.4525 32.7902 13.1814 31.061 13.1814 28.9282C13.1814 26.7942 11.4525 25.0653 9.31943 25.0653ZM36.8955 42.6189C35.0483 43.686 34.4146 46.0468 35.4817 47.8931C36.5477 49.7404 38.9085 50.3737 40.7559 49.3068C42.603 48.2408 43.2365 45.88 42.1696 44.0324C41.1037 42.1864 38.7415 41.5532 36.8955 42.6189ZM17.7088 28.9282C17.7088 25.1115 19.6047 21.7394 22.5054 19.6976L19.6817 14.9683C16.3028 17.2271 13.7884 20.6786 12.7435 24.7211C13.9628 25.7158 14.7431 27.2303 14.7431 28.928C14.7431 30.6247 13.9628 32.1393 12.7435 33.1341C13.787 37.1775 16.3014 40.6295 19.6817 42.8883L22.5054 38.1577C19.6047 36.117 17.7088 32.7451 17.7088 28.9282ZM28.9898 17.646C34.8834 17.646 39.7187 22.1646 40.2262 27.9275L45.7294 27.8463C45.4589 23.592 43.6002 19.7726 40.7446 16.9641C39.276 17.5189 37.5795 17.434 36.1136 16.5889C34.6448 15.7413 33.7238 14.3115 33.4721 12.7596C32.0122 12.3556 30.5044 12.1506 28.9896 12.1501C26.4103 12.1476 23.8655 12.7418 21.554 13.8862L24.2377 18.6955C25.726 18.0028 27.3481 17.6445 28.9898 17.646ZM28.9898 40.2094C27.3482 40.2109 25.7262 39.8527 24.2379 39.16L21.5543 43.9688C23.8653 45.1147 26.4105 45.7095 28.99 45.7067C30.5049 45.7065 32.0127 45.5009 33.4724 45.0957C33.7241 43.5437 34.6453 42.1153 36.1136 41.2663C37.5808 40.4197 39.2762 40.3363 40.7446 40.8911C43.6004 38.0827 45.4589 34.2633 45.7298 30.0089L40.2251 29.9278C39.7187 35.6922 34.8836 40.2094 28.9898 40.2094ZM36.8941 15.235C38.7415 16.3016 41.1025 15.67 42.1683 13.8226C43.2354 11.9752 42.6033 9.61418 40.7559 8.54707C38.9085 7.48132 36.5477 8.11434 35.4804 9.96173C34.4149 11.8082 35.0481 14.169 36.8941 15.235Z" fill="white"/>
</g>
<defs>
<clipPath id="clip0_268_1234">
<rect width="58" height="58" fill="white"/>
</clipPath>
</defs>
</svg>
